{
	"patcher" : 	{
		"fileversion" : 1,
		"appversion" : 		{
			"major" : 8,
			"minor" : 1,
			"revision" : 8,
			"architecture" : "x64",
			"modernui" : 1
		}
,
		"classnamespace" : "dsp.gen",
		"rect" : [ 36.0, 79.0, 1067.0, 731.0 ],
		"bglocked" : 0,
		"openinpresentation" : 0,
		"default_fontsize" : 12.0,
		"default_fontface" : 0,
		"default_fontname" : "Arial",
		"gridonopen" : 1,
		"gridsize" : [ 15.0, 15.0 ],
		"gridsnaponopen" : 1,
		"objectsnaponopen" : 1,
		"statusbarvisible" : 2,
		"toolbarvisible" : 1,
		"lefttoolbarpinned" : 0,
		"toptoolbarpinned" : 0,
		"righttoolbarpinned" : 0,
		"bottomtoolbarpinned" : 0,
		"toolbars_unpinned_last_save" : 0,
		"tallnewobj" : 0,
		"boxanimatetime" : 200,
		"enablehscroll" : 1,
		"enablevscroll" : 1,
		"devicewidth" : 0.0,
		"description" : "",
		"digest" : "",
		"tags" : "",
		"style" : "",
		"subpatcher_template" : "",
		"assistshowspatchername" : 0,
		"title" : "Gen Effect Patch",
		"boxes" : [ 			{
				"box" : 				{
					"id" : "obj-8",
					"maxclass" : "newobj",
					"numinlets" : 1,
					"numoutlets" : 1,
					"outlettype" : [ "" ],
					"patching_rect" : [ 1147.75, 468.0, 51.0, 22.0 ],
					"text" : "clip -1 1"
				}

			}
, 			{
				"box" : 				{
					"id" : "obj-6",
					"maxclass" : "newobj",
					"numinlets" : 1,
					"numoutlets" : 1,
					"outlettype" : [ "" ],
					"patching_rect" : [ 59.4375, 870.0, 51.0, 22.0 ],
					"text" : "clip -1 1"
				}

			}
, 			{
				"box" : 				{
					"id" : "obj-4",
					"maxclass" : "newobj",
					"numinlets" : 1,
					"numoutlets" : 1,
					"outlettype" : [ "" ],
					"patching_rect" : [ 263.1875, 877.0, 51.0, 22.0 ],
					"text" : "clip -1 1"
				}

			}
, 			{
				"box" : 				{
					"bubble" : 1,
					"bubbleside" : 2,
					"fontface" : 1,
					"id" : "obj-3",
					"linecount" : 5,
					"maxclass" : "comment",
					"numinlets" : 1,
					"numoutlets" : 0,
					"patching_rect" : [ 1133.0, 319.0, 244.0, 93.0 ],
					"text" : "It is recommended to add clipping protection on inlets and outlets by specifying minimum and maximum amplitude values with @min and @max attributes ",
					"textcolor" : [ 0.32156862745098, 0.556862745098039, 0.811764705882353, 1.0 ],
					"textjustification" : 1
				}

			}
, 			{
				"box" : 				{
					"color" : [ 0.999996, 0.999939, 0.041033, 1.0 ],
					"id" : "obj-2",
					"maxclass" : "newobj",
					"numinlets" : 1,
					"numoutlets" : 0,
					"patching_rect" : [ 1147.75, 502.0, 35.0, 22.0 ],
					"text" : "out 1"
				}

			}
, 			{
				"box" : 				{
					"color" : [ 0.999996, 0.999939, 0.041033, 1.0 ],
					"id" : "obj-1",
					"maxclass" : "newobj",
					"numinlets" : 0,
					"numoutlets" : 1,
					"outlettype" : [ "" ],
					"patching_rect" : [ 1147.75, 418.0, 190.0, 22.0 ],
					"text" : "in 1 @default 0. @min -1 @max 1"
				}

			}
, 			{
				"box" : 				{
					"bubble" : 1,
					"bubbleside" : 2,
					"fontface" : 1,
					"id" : "obj-100",
					"linecount" : 4,
					"maxclass" : "comment",
					"numinlets" : 1,
					"numoutlets" : 0,
					"patching_rect" : [ 1440.5, 468.0, 245.0, 79.0 ],
					"text" : "Gen Parameters that are Mapped/Mappable to Toggle Hardware Switches (mapped to UI controls in main patch)",
					"textcolor" : [ 0.32156862745098, 0.556862745098039, 0.811764705882353, 1.0 ],
					"textjustification" : 1
				}

			}
, 			{
				"box" : 				{
					"color" : [ 0.317647, 0.654902, 0.976471, 1.0 ],
					"id" : "obj-99",
					"maxclass" : "newobj",
					"numinlets" : 0,
					"numoutlets" : 1,
					"outlettype" : [ "" ],
					"patching_rect" : [ 1450.0, 620.5, 206.0, 22.0 ],
					"text" : "param @name sw7 @min 0 @max 1"
				}

			}
, 			{
				"box" : 				{
					"bubble" : 1,
					"bubbleside" : 2,
					"fontface" : 1,
					"id" : "obj-216",
					"maxclass" : "comment",
					"numinlets" : 1,
					"numoutlets" : 0,
					"patching_rect" : [ 1713.0, 573.5, 244.0, 39.0 ],
					"text" : "Gen Expression Pedal Control",
					"textcolor" : [ 0.32156862745098, 0.556862745098039, 0.811764705882353, 1.0 ],
					"textjustification" : 1
				}

			}
, 			{
				"box" : 				{
					"color" : [ 0.317647, 0.654902, 0.976471, 1.0 ],
					"id" : "obj-217",
					"maxclass" : "newobj",
					"numinlets" : 0,
					"numoutlets" : 1,
					"outlettype" : [ "" ],
					"patching_rect" : [ 1723.0, 623.5, 204.0, 22.0 ],
					"text" : "param @name exp @min 0 @max 1"
				}

			}
, 			{
				"box" : 				{
					"bubble" : 1,
					"bubbleside" : 2,
					"fontface" : 1,
					"id" : "obj-218",
					"linecount" : 3,
					"maxclass" : "comment",
					"numinlets" : 1,
					"numoutlets" : 0,
					"patching_rect" : [ 1709.5, 245.0, 244.0, 66.0 ],
					"text" : "Gen Knob Controls that are Mapped/Mappable to Hardware Controls (mapped to UI controls in main patch)",
					"textcolor" : [ 0.32156862745098, 0.556862745098039, 0.811764705882353, 1.0 ],
					"textjustification" : 1
				}

			}
, 			{
				"box" : 				{
					"color" : [ 0.317647, 0.654902, 0.976471, 1.0 ],
					"id" : "obj-219",
					"maxclass" : "newobj",
					"numinlets" : 0,
					"numoutlets" : 1,
					"outlettype" : [ "" ],
					"patching_rect" : [ 1740.0, 517.0, 217.0, 22.0 ],
					"text" : "param @name knob6 @min 0 @max 1"
				}

			}
, 			{
				"box" : 				{
					"color" : [ 0.317647, 0.654902, 0.976471, 1.0 ],
					"id" : "obj-220",
					"maxclass" : "newobj",
					"numinlets" : 0,
					"numoutlets" : 1,
					"outlettype" : [ "" ],
					"patching_rect" : [ 1723.0, 476.0, 217.0, 22.0 ],
					"text" : "param @name knob5 @min 0 @max 1"
				}

			}
, 			{
				"box" : 				{
					"color" : [ 0.317647, 0.654902, 0.976471, 1.0 ],
					"id" : "obj-221",
					"maxclass" : "newobj",
					"numinlets" : 0,
					"numoutlets" : 1,
					"outlettype" : [ "" ],
					"patching_rect" : [ 1740.0, 435.0, 217.0, 22.0 ],
					"text" : "param @name knob4 @min 0 @max 1"
				}

			}
, 			{
				"box" : 				{
					"color" : [ 0.317647, 0.654902, 0.976471, 1.0 ],
					"id" : "obj-222",
					"maxclass" : "newobj",
					"numinlets" : 0,
					"numoutlets" : 1,
					"outlettype" : [ "" ],
					"patching_rect" : [ 1723.0, 397.0, 217.0, 22.0 ],
					"text" : "param @name knob3 @min 0 @max 1"
				}

			}
, 			{
				"box" : 				{
					"color" : [ 0.317647, 0.654902, 0.976471, 1.0 ],
					"id" : "obj-223",
					"maxclass" : "newobj",
					"numinlets" : 0,
					"numoutlets" : 1,
					"outlettype" : [ "" ],
					"patching_rect" : [ 1740.0, 363.0, 217.0, 22.0 ],
					"text" : "param @name knob2 @min 0 @max 1"
				}

			}
, 			{
				"box" : 				{
					"color" : [ 0.317647, 0.654902, 0.976471, 1.0 ],
					"id" : "obj-224",
					"maxclass" : "newobj",
					"numinlets" : 0,
					"numoutlets" : 1,
					"outlettype" : [ "" ],
					"patching_rect" : [ 1723.0, 324.0, 217.0, 22.0 ],
					"text" : "param @name knob1 @min 0 @max 1"
				}

			}
, 			{
				"box" : 				{
					"fontface" : 1,
					"fontsize" : 18.0,
					"id" : "obj-241",
					"maxclass" : "comment",
					"numinlets" : 1,
					"numoutlets" : 0,
					"patching_rect" : [ 1052.625, 60.0, 396.0, 27.0 ],
					"text" : "Completely unrelated to the effect at the left:"
				}

			}
, 			{
				"box" : 				{
					"id" : "obj-91",
					"linecount" : 43,
					"maxclass" : "comment",
					"numinlets" : 1,
					"numoutlets" : 0,
					"patching_rect" : [ 1035.0, 92.0, 18.0, 583.0 ],
					"text" : "|\n|\n|\n|\n|\n|\n|\n|\n|\n|\n|\n|\n|\n|\n|\n|\n|\n|\n|\n|\n|\n|\n|\n|\n|\n|\n|\n|\n|\n|\n|\n|\n|\n|\n|\n|\n|\n|\n|\n|\n|\n|\n|"
				}

			}
, 			{
				"box" : 				{
					"id" : "obj-92",
					"linecount" : 43,
					"maxclass" : "comment",
					"numinlets" : 1,
					"numoutlets" : 0,
					"patching_rect" : [ 1030.0, 92.0, 18.0, 583.0 ],
					"text" : "|\n|\n|\n|\n|\n|\n|\n|\n|\n|\n|\n|\n|\n|\n|\n|\n|\n|\n|\n|\n|\n|\n|\n|\n|\n|\n|\n|\n|\n|\n|\n|\n|\n|\n|\n|\n|\n|\n|\n|\n|\n|\n|"
				}

			}
, 			{
				"box" : 				{
					"fontface" : 0,
					"fontsize" : 12.0,
					"id" : "obj-93",
					"linecount" : 4,
					"maxclass" : "comment",
					"numinlets" : 1,
					"numoutlets" : 0,
					"patching_rect" : [ 1063.0, 135.0, 476.0, 60.0 ],
					"text" : "just an example...delete as needed, but note that multichannel I/O in the main patch will be lost if the number of in and out objects is reduced. If you remove in an out objects, you'll need to unlock the patch and reconnect inlets and outlets from AudioInputs and AudioOutputs object to the gen~ objects (in the Gen section of the patch)"
				}

			}
, 			{
				"box" : 				{
					"fontface" : 1,
					"fontsize" : 18.0,
					"id" : "obj-94",
					"maxclass" : "comment",
					"numinlets" : 1,
					"numoutlets" : 0,
					"patching_rect" : [ 1063.0, 114.0, 388.0, 27.0 ],
					"text" : "Default Inputs, Outputs, and Parameters"
				}

			}
, 			{
				"box" : 				{
					"bubble" : 1,
					"bubbleside" : 0,
					"fontface" : 1,
					"id" : "obj-98",
					"maxclass" : "comment",
					"numinlets" : 1,
					"numoutlets" : 0,
					"patching_rect" : [ 1069.25, 637.0, 346.75, 39.0 ],
					"text" : "Default Output Channels for this Gen Patch",
					"textcolor" : [ 0.32156862745098, 0.556862745098039, 0.811764705882353, 1.0 ],
					"textjustification" : 1
				}

			}
, 			{
				"box" : 				{
					"bubble" : 1,
					"bubbleside" : 2,
					"fontface" : 1,
					"id" : "obj-242",
					"maxclass" : "comment",
					"numinlets" : 1,
					"numoutlets" : 0,
					"patching_rect" : [ 1075.25, 200.0, 350.75, 39.0 ],
					"text" : "Default Input Channels for this Gen Patch",
					"textcolor" : [ 0.32156862745098, 0.556862745098039, 0.811764705882353, 1.0 ],
					"textjustification" : 1
				}

			}
, 			{
				"box" : 				{
					"bubble" : 1,
					"bubbleside" : 2,
					"fontface" : 1,
					"id" : "obj-243",
					"linecount" : 4,
					"maxclass" : "comment",
					"numinlets" : 1,
					"numoutlets" : 0,
					"patching_rect" : [ 1436.5, 244.0, 244.0, 79.0 ],
					"text" : "Gen Parameters that are Mapped/Mappable to Momentary Hardware Switches (mapped to UI controls in main patch)",
					"textcolor" : [ 0.32156862745098, 0.556862745098039, 0.811764705882353, 1.0 ],
					"textjustification" : 1
				}

			}
, 			{
				"box" : 				{
					"color" : [ 0.317647, 0.654902, 0.976471, 1.0 ],
					"id" : "obj-244",
					"maxclass" : "newobj",
					"numinlets" : 0,
					"numoutlets" : 1,
					"outlettype" : [ "" ],
					"patching_rect" : [ 1469.0, 588.0, 206.0, 22.0 ],
					"text" : "param @name sw6 @min 0 @max 1"
				}

			}
, 			{
				"box" : 				{
					"color" : [ 0.317647, 0.654902, 0.976471, 1.0 ],
					"id" : "obj-245",
					"maxclass" : "newobj",
					"numinlets" : 0,
					"numoutlets" : 1,
					"outlettype" : [ "" ],
					"patching_rect" : [ 1450.0, 551.0, 206.0, 22.0 ],
					"text" : "param @name sw5 @min 0 @max 1"
				}

			}
, 			{
				"box" : 				{
					"color" : [ 0.317647, 0.654902, 0.976471, 1.0 ],
					"id" : "obj-246",
					"maxclass" : "newobj",
					"numinlets" : 0,
					"numoutlets" : 1,
					"outlettype" : [ "" ],
					"patching_rect" : [ 1469.0, 428.0, 206.0, 22.0 ],
					"text" : "param @name sw4 @min 0 @max 1"
				}

			}
, 			{
				"box" : 				{
					"color" : [ 0.317647, 0.654902, 0.976471, 1.0 ],
					"id" : "obj-247",
					"maxclass" : "newobj",
					"numinlets" : 0,
					"numoutlets" : 1,
					"outlettype" : [ "" ],
					"patching_rect" : [ 1450.0, 397.0, 206.0, 22.0 ],
					"text" : "param @name sw3 @min 0 @max 1"
				}

			}
, 			{
				"box" : 				{
					"color" : [ 0.317647, 0.654902, 0.976471, 1.0 ],
					"id" : "obj-248",
					"maxclass" : "newobj",
					"numinlets" : 0,
					"numoutlets" : 1,
					"outlettype" : [ "" ],
					"patching_rect" : [ 1469.0, 363.0, 206.0, 22.0 ],
					"text" : "param @name sw2 @min 0 @max 1"
				}

			}
, 			{
				"box" : 				{
					"color" : [ 0.317647, 0.654902, 0.976471, 1.0 ],
					"id" : "obj-249",
					"maxclass" : "newobj",
					"numinlets" : 0,
					"numoutlets" : 1,
					"outlettype" : [ "" ],
					"patching_rect" : [ 1450.0, 325.0, 206.0, 22.0 ],
					"text" : "param @name sw1 @min 0 @max 1"
				}

			}
, 			{
				"box" : 				{
					"color" : [ 0.999996, 0.999939, 0.041033, 1.0 ],
					"id" : "obj-129",
					"maxclass" : "newobj",
					"numinlets" : 1,
					"numoutlets" : 0,
					"patching_rect" : [ 1384.0, 609.0, 37.0, 22.0 ],
					"text" : "out 8"
				}

			}
, 			{
				"box" : 				{
					"color" : [ 0.999996, 0.999939, 0.041033, 1.0 ],
					"id" : "obj-131",
					"maxclass" : "newobj",
					"numinlets" : 1,
					"numoutlets" : 0,
					"patching_rect" : [ 1337.0, 609.0, 37.0, 22.0 ],
					"text" : "out 7"
				}

			}
, 			{
				"box" : 				{
					"color" : [ 0.999996, 0.999939, 0.041033, 1.0 ],
					"id" : "obj-132",
					"maxclass" : "newobj",
					"numinlets" : 1,
					"numoutlets" : 0,
					"patching_rect" : [ 1289.0, 609.0, 37.0, 22.0 ],
					"text" : "out 6"
				}

			}
, 			{
				"box" : 				{
					"color" : [ 0.999996, 0.999939, 0.041033, 1.0 ],
					"id" : "obj-133",
					"maxclass" : "newobj",
					"numinlets" : 1,
					"numoutlets" : 0,
					"patching_rect" : [ 1247.0, 609.0, 37.0, 22.0 ],
					"text" : "out 5"
				}

			}
, 			{
				"box" : 				{
					"color" : [ 0.999996, 0.999939, 0.041033, 1.0 ],
					"id" : "obj-134",
					"maxclass" : "newobj",
					"numinlets" : 1,
					"numoutlets" : 0,
					"patching_rect" : [ 1201.0, 609.0, 37.0, 22.0 ],
					"text" : "out 4"
				}

			}
, 			{
				"box" : 				{
					"color" : [ 0.999996, 0.999939, 0.041033, 1.0 ],
					"id" : "obj-135",
					"maxclass" : "newobj",
					"numinlets" : 1,
					"numoutlets" : 0,
					"patching_rect" : [ 1158.0, 609.0, 37.0, 22.0 ],
					"text" : "out 3"
				}

			}
, 			{
				"box" : 				{
					"color" : [ 0.999996, 0.999939, 0.041033, 1.0 ],
					"id" : "obj-136",
					"maxclass" : "newobj",
					"numinlets" : 1,
					"numoutlets" : 0,
					"patching_rect" : [ 1113.0, 609.0, 37.0, 22.0 ],
					"text" : "out 2"
				}

			}
, 			{
				"box" : 				{
					"color" : [ 0.999996, 0.999939, 0.041033, 1.0 ],
					"id" : "obj-137",
					"maxclass" : "newobj",
					"numinlets" : 1,
					"numoutlets" : 0,
					"patching_rect" : [ 1063.0, 609.0, 37.0, 22.0 ],
					"text" : "out 1"
				}

			}
, 			{
				"box" : 				{
					"color" : [ 0.999996, 0.999939, 0.041033, 1.0 ],
					"id" : "obj-138",
					"maxclass" : "newobj",
					"numinlets" : 0,
					"numoutlets" : 1,
					"outlettype" : [ "" ],
					"patching_rect" : [ 1384.0, 231.0, 30.0, 22.0 ],
					"text" : "in 8"
				}

			}
, 			{
				"box" : 				{
					"color" : [ 0.999996, 0.999939, 0.041033, 1.0 ],
					"id" : "obj-139",
					"maxclass" : "newobj",
					"numinlets" : 0,
					"numoutlets" : 1,
					"outlettype" : [ "" ],
					"patching_rect" : [ 1337.0, 231.0, 30.0, 22.0 ],
					"text" : "in 7"
				}

			}
, 			{
				"box" : 				{
					"color" : [ 0.999996, 0.999939, 0.041033, 1.0 ],
					"id" : "obj-140",
					"maxclass" : "newobj",
					"numinlets" : 0,
					"numoutlets" : 1,
					"outlettype" : [ "" ],
					"patching_rect" : [ 1289.0, 231.0, 30.0, 22.0 ],
					"text" : "in 6"
				}

			}
, 			{
				"box" : 				{
					"color" : [ 0.999996, 0.999939, 0.041033, 1.0 ],
					"id" : "obj-141",
					"maxclass" : "newobj",
					"numinlets" : 0,
					"numoutlets" : 1,
					"outlettype" : [ "" ],
					"patching_rect" : [ 1240.0, 231.0, 30.0, 22.0 ],
					"text" : "in 5"
				}

			}
, 			{
				"box" : 				{
					"color" : [ 0.999996, 0.999939, 0.041033, 1.0 ],
					"id" : "obj-142",
					"maxclass" : "newobj",
					"numinlets" : 0,
					"numoutlets" : 1,
					"outlettype" : [ "" ],
					"patching_rect" : [ 1201.0, 231.0, 30.0, 22.0 ],
					"text" : "in 4"
				}

			}
, 			{
				"box" : 				{
					"color" : [ 0.999996, 0.999939, 0.041033, 1.0 ],
					"id" : "obj-143",
					"maxclass" : "newobj",
					"numinlets" : 0,
					"numoutlets" : 1,
					"outlettype" : [ "" ],
					"patching_rect" : [ 1158.0, 231.0, 30.0, 22.0 ],
					"text" : "in 3"
				}

			}
, 			{
				"box" : 				{
					"color" : [ 0.999996, 0.999939, 0.041033, 1.0 ],
					"id" : "obj-144",
					"maxclass" : "newobj",
					"numinlets" : 0,
					"numoutlets" : 1,
					"outlettype" : [ "" ],
					"patching_rect" : [ 1113.0, 231.0, 30.0, 22.0 ],
					"text" : "in 2"
				}

			}
, 			{
				"box" : 				{
					"color" : [ 0.999996, 0.999939, 0.041033, 1.0 ],
					"id" : "obj-145",
					"maxclass" : "newobj",
					"numinlets" : 0,
					"numoutlets" : 1,
					"outlettype" : [ "" ],
					"patching_rect" : [ 1075.0, 231.0, 30.0, 22.0 ],
					"text" : "in 1"
				}

			}
, 			{
				"box" : 				{
					"bubble" : 1,
					"id" : "obj-84",
					"linecount" : 2,
					"maxclass" : "comment",
					"numinlets" : 1,
					"numoutlets" : 0,
					"patching_rect" : [ 651.1875, 219.5, 316.0, 37.0 ],
					"text" : "smoothes number transitions knobs to ensure that numbers ramp and don't pop if turned too quickly"
				}

			}
, 			{
				"box" : 				{
					"id" : "obj-80",
					"maxclass" : "newobj",
					"numinlets" : 1,
					"numoutlets" : 1,
					"outlettype" : [ "" ],
					"patching_rect" : [ 667.1875, 540.0, 29.0, 22.0 ],
					"text" : "/ 16"
				}

			}
, 			{
				"box" : 				{
					"id" : "obj-82",
					"maxclass" : "newobj",
					"numinlets" : 3,
					"numoutlets" : 1,
					"outlettype" : [ "" ],
					"patching_rect" : [ 646.1875, 582.0, 40.0, 22.0 ],
					"text" : "slide"
				}

			}
, 			{
				"box" : 				{
					"id" : "obj-225",
					"maxclass" : "newobj",
					"numinlets" : 1,
					"numoutlets" : 1,
					"outlettype" : [ "" ],
					"patching_rect" : [ 626.1875, 198.0, 29.0, 22.0 ],
					"text" : "/ 16"
				}

			}
, 			{
				"box" : 				{
					"id" : "obj-56",
					"maxclass" : "newobj",
					"numinlets" : 0,
					"numoutlets" : 1,
					"outlettype" : [ "" ],
					"patching_rect" : [ 626.1875, 165.0, 68.0, 22.0 ],
					"text" : "samplerate"
				}

			}
, 			{
				"box" : 				{
					"id" : "obj-57",
					"maxclass" : "newobj",
					"numinlets" : 3,
					"numoutlets" : 1,
					"outlettype" : [ "" ],
					"patching_rect" : [ 605.1875, 234.5, 40.0, 22.0 ],
					"text" : "slide"
				}

			}
, 			{
				"box" : 				{
					"fontface" : 0,
					"fontsize" : 12.0,
					"id" : "obj-226",
					"maxclass" : "comment",
					"numinlets" : 1,
					"numoutlets" : 0,
					"patching_rect" : [ 249.1875, 51.5, 70.0, 20.0 ],
					"text" : "V.J. Manzo"
				}

			}
, 			{
				"box" : 				{
					"fontface" : 1,
					"fontsize" : 16.0,
					"id" : "obj-234",
					"maxclass" : "comment",
					"numinlets" : 1,
					"numoutlets" : 0,
					"patching_rect" : [ 564.4375, 52.5, 315.0, 24.0 ],
					"text" : "The Actual Tremolo Effect..."
				}

			}
, 			{
				"box" : 				{
					"fontface" : 1,
					"fontsize" : 16.0,
					"id" : "obj-227",
					"maxclass" : "comment",
					"numinlets" : 1,
					"numoutlets" : 0,
					"patching_rect" : [ 76.6875, 206.0, 315.0, 24.0 ],
					"text" : "Dry Signal and Input Switching..."
				}

			}
, 			{
				"box" : 				{
					"bubble" : 1,
					"bubblepoint" : 0.0,
					"bubbleside" : 2,
					"id" : "obj-5",
					"linecount" : 2,
					"maxclass" : "comment",
					"numinlets" : 1,
					"numoutlets" : 0,
					"patching_rect" : [ 68.6875, 760.5, 276.75, 52.0 ],
					"text" : "Signal 1 (first inlet) = Dry Signal\nSignal 2 (2nd inlet) = Wet (Effect) Signal",
					"textjustification" : 1
				}

			}
, 			{
				"box" : 				{
					"id" : "obj-7",
					"maxclass" : "newobj",
					"numinlets" : 1,
					"numoutlets" : 1,
					"outlettype" : [ "" ],
					"patching_rect" : [ 101.1875, 498.5, 22.0, 22.0 ],
					"text" : "/ 8"
				}

			}
, 			{
				"box" : 				{
					"id" : "obj-228",
					"maxclass" : "newobj",
					"numinlets" : 0,
					"numoutlets" : 1,
					"outlettype" : [ "" ],
					"patching_rect" : [ 101.1875, 467.5, 68.0, 22.0 ],
					"text" : "samplerate"
				}

			}
, 			{
				"box" : 				{
					"id" : "obj-9",
					"maxclass" : "newobj",
					"numinlets" : 3,
					"numoutlets" : 1,
					"outlettype" : [ "" ],
					"patching_rect" : [ 80.4375, 542.5, 40.0, 22.0 ],
					"text" : "slide"
				}

			}
, 			{
				"box" : 				{
					"id" : "obj-235",
					"maxclass" : "newobj",
					"numinlets" : 3,
					"numoutlets" : 1,
					"outlettype" : [ "" ],
					"patching_rect" : [ 59.4375, 823.0, 40.0, 22.0 ],
					"text" : "mix"
				}

			}
, 			{
				"box" : 				{
					"color" : [ 0.317647, 0.654902, 0.976471, 1.0 ],
					"id" : "obj-10",
					"maxclass" : "newobj",
					"numinlets" : 0,
					"numoutlets" : 1,
					"outlettype" : [ "" ],
					"patching_rect" : [ 80.4375, 420.0, 206.0, 22.0 ],
					"text" : "param @name sw5 @min 0 @max 1"
				}

			}
, 			{
				"box" : 				{
					"fontface" : 0,
					"fontsize" : 12.0,
					"id" : "obj-11",
					"linecount" : 2,
					"maxclass" : "comment",
					"numinlets" : 1,
					"numoutlets" : 0,
					"patching_rect" : [ 59.4375, 77.0, 248.0, 33.0 ],
					"text" : "Press the \"sw5\" button in the main patch to engage this effect"
				}

			}
, 			{
				"box" : 				{
					"color" : [ 0.999996, 0.999939, 0.041033, 1.0 ],
					"id" : "obj-70",
					"maxclass" : "newobj",
					"numinlets" : 1,
					"numoutlets" : 0,
					"patching_rect" : [ 263.1875, 908.0, 35.0, 22.0 ],
					"text" : "out 2"
				}

			}
, 			{
				"box" : 				{
					"bubble" : 1,
					"bubbleside" : 2,
					"fontface" : 1,
					"id" : "obj-72",
					"maxclass" : "comment",
					"numinlets" : 1,
					"numoutlets" : 0,
					"patching_rect" : [ 661.0, 459.0, 195.0, 39.0 ],
					"text" : "2nd Potentiomer Control",
					"textcolor" : [ 0.32156862745098, 0.556862745098039, 0.811764705882353, 1.0 ],
					"textjustification" : 1
				}

			}
, 			{
				"box" : 				{
					"bubble" : 1,
					"bubbleside" : 2,
					"fontface" : 1,
					"id" : "obj-12",
					"maxclass" : "comment",
					"numinlets" : 1,
					"numoutlets" : 0,
					"patching_rect" : [ 605.1875, 86.0, 196.0, 39.0 ],
					"text" : "1st Potentiomer Control",
					"textcolor" : [ 0.32156862745098, 0.556862745098039, 0.811764705882353, 1.0 ],
					"textjustification" : 1
				}

			}
, 			{
				"box" : 				{
					"bubble" : 1,
					"bubbleside" : 2,
					"fontface" : 1,
					"id" : "obj-13",
					"linecount" : 3,
					"maxclass" : "comment",
					"numinlets" : 1,
					"numoutlets" : 0,
					"patching_rect" : [ 70.6875, 351.0, 54.5, 66.0 ],
					"text" : "Toggle SwitchControl",
					"textcolor" : [ 0.32156862745098, 0.556862745098039, 0.811764705882353, 1.0 ],
					"textjustification" : 1
				}

			}
, 			{
				"box" : 				{
					"bubble" : 1,
					"bubblepoint" : 0.81,
					"bubbleside" : 2,
					"id" : "obj-79",
					"linecount" : 4,
					"maxclass" : "comment",
					"numinlets" : 1,
					"numoutlets" : 0,
					"patching_rect" : [ 529.9375, 578.0, 92.0, 79.0 ],
					"text" : "scales output of signal by a certain \"depth\" offset factor"
				}

			}
, 			{
				"box" : 				{
					"bubble" : 1,
					"id" : "obj-14",
					"linecount" : 2,
					"maxclass" : "comment",
					"numinlets" : 1,
					"numoutlets" : 0,
					"patching_rect" : [ 722.4375, 420.0, 214.0, 37.0 ],
					"text" : "shape of tremolo will be a sine, but with what \"depth\" offset?"
				}

			}
, 			{
				"box" : 				{
					"bubble" : 1,
					"bubblepoint" : 0.0,
					"id" : "obj-15",
					"maxclass" : "comment",
					"numinlets" : 1,
					"numoutlets" : 0,
					"patching_rect" : [ 629.1875, 336.0, 194.25, 24.0 ],
					"text" : "modulator for phasor..."
				}

			}
, 			{
				"box" : 				{
					"bubble" : 1,
					"bubblepoint" : 0.0,
					"id" : "obj-16",
					"linecount" : 2,
					"maxclass" : "comment",
					"numinlets" : 1,
					"numoutlets" : 0,
					"patching_rect" : [ 546.375, 782.0, 309.625, 37.0 ],
					"text" : "how will the tremolo process the amplitude of an incoming signal and with what \"shape\""
				}

			}
, 			{
				"box" : 				{
					"bubble" : 1,
					"bubblepoint" : 0.0,
					"id" : "obj-17",
					"maxclass" : "comment",
					"numinlets" : 1,
					"numoutlets" : 0,
					"patching_rect" : [ 635.8125, 728.5, 160.625, 24.0 ],
					"text" : "...and compensates"
				}

			}
, 			{
				"box" : 				{
					"bubble" : 1,
					"bubblepoint" : 0.15,
					"id" : "obj-18",
					"linecount" : 3,
					"maxclass" : "comment",
					"numinlets" : 1,
					"numoutlets" : 0,
					"patching_rect" : [ 678.1875, 666.0, 97.0, 51.0 ],
					"text" : "offsets depth reduction to amplitude..."
				}

			}
, 			{
				"box" : 				{
					"bubble" : 1,
					"bubblepoint" : 0.0,
					"bubbleside" : 2,
					"id" : "obj-19",
					"linecount" : 11,
					"maxclass" : "comment",
					"numinlets" : 1,
					"numoutlets" : 0,
					"patching_rect" : [ 132.1875, 243.0, 324.0, 173.0 ],
					"text" : "The parem sw5 sends outputs 0 or 1, which the mix object (below) uses to control the wet/dry mix where 0 100% of the dry signal and 1 is 100% of the effect. If you use a potentiometer param instead of an \"on/off\" switch, you can send floating point values between 0.0 and 1.0 to adjust the relative balance of the dry and signals. In other words, if you want to make the mix object function as a bypass toggle, at the hardware level, use an \"on/off\" switch that outputs either 0 or 1; if you want a \"wet/dry\" knob, use a potentiometer that outputs floating point values between 0 and 1"
				}

			}
, 			{
				"box" : 				{
					"bubble" : 1,
					"bubblepoint" : 0.0,
					"bubbleside" : 2,
					"id" : "obj-20",
					"maxclass" : "comment",
					"numinlets" : 1,
					"numoutlets" : 0,
					"patching_rect" : [ 105.1875, 814.5, 290.0, 39.0 ],
					"text" : "dual mono output with clipping protection",
					"textjustification" : 1
				}

			}
, 			{
				"box" : 				{
					"bubble" : 1,
					"id" : "obj-21",
					"linecount" : 2,
					"maxclass" : "comment",
					"numinlets" : 1,
					"numoutlets" : 0,
					"patching_rect" : [ 256.1875, 140.0, 150.0, 37.0 ],
					"text" : "mono audio input with clipping protection"
				}

			}
, 			{
				"box" : 				{
					"bubble" : 1,
					"id" : "obj-22",
					"linecount" : 7,
					"maxclass" : "comment",
					"numinlets" : 1,
					"numoutlets" : 0,
					"patching_rect" : [ 125.1875, 498.5, 220.0, 104.0 ],
					"text" : "the slide object prevents pops by smoothing the transition from 0 to 1 when the dry and wet signals are switched by the mix object (below); this causes the transition to occur over N samples. In this case, a division of the samplerate is used."
				}

			}
, 			{
				"box" : 				{
					"bubble" : 1,
					"bubblepoint" : 0.0,
					"id" : "obj-23",
					"linecount" : 3,
					"maxclass" : "comment",
					"numinlets" : 1,
					"numoutlets" : 0,
					"patching_rect" : [ 691.8125, 273.0, 296.0, 51.0 ],
					"text" : "sets minimum frequency rate to .1, so when the effect is enabled and the knob is at zero, there's still some processing happening to the signal"
				}

			}
, 			{
				"box" : 				{
					"id" : "obj-24",
					"maxclass" : "newobj",
					"numinlets" : 2,
					"numoutlets" : 1,
					"outlettype" : [ "" ],
					"patching_rect" : [ 604.4375, 273.0, 87.0, 22.0 ],
					"text" : "scale 0 1 0.1 1"
				}

			}
, 			{
				"box" : 				{
					"bubble" : 1,
					"bubblepoint" : 0.0,
					"id" : "obj-26",
					"linecount" : 5,
					"maxclass" : "comment",
					"numinlets" : 1,
					"numoutlets" : 0,
					"patching_rect" : [ 760.1875, 615.0, 239.0, 78.0 ],
					"text" : "sets a min and max depth rate to .5; min value ensures that when the effect is enabled and the knob is at zero, there's still some processing happening to the signal"
				}

			}
, 			{
				"box" : 				{
					"bubble" : 1,
					"bubblepoint" : 0.36,
					"id" : "obj-27",
					"linecount" : 3,
					"maxclass" : "comment",
					"numinlets" : 1,
					"numoutlets" : 0,
					"patching_rect" : [ 655.1875, 365.0, 172.0, 51.0 ],
					"text" : "phasor sets frequency of amplitude modulation in cycle between 0 and 1"
				}

			}
, 			{
				"box" : 				{
					"bubble" : 1,
					"id" : "obj-28",
					"linecount" : 2,
					"maxclass" : "comment",
					"numinlets" : 1,
					"numoutlets" : 0,
					"patching_rect" : [ 861.0, 491.0, 178.0, 37.0 ],
					"text" : "param name knob2  is the Depth of the tremolo effect"
				}

			}
, 			{
				"box" : 				{
					"id" : "obj-29",
					"maxclass" : "newobj",
					"numinlets" : 2,
					"numoutlets" : 1,
					"outlettype" : [ "" ],
					"patching_rect" : [ 646.1875, 615.0, 110.0, 22.0 ],
					"text" : "scale 0 1 0.001 0.5"
				}

			}
, 			{
				"box" : 				{
					"id" : "obj-30",
					"maxclass" : "newobj",
					"numinlets" : 1,
					"numoutlets" : 1,
					"outlettype" : [ "" ],
					"patching_rect" : [ 646.1875, 671.0, 30.0, 22.0 ],
					"text" : "+ -1"
				}

			}
, 			{
				"box" : 				{
					"id" : "obj-39",
					"maxclass" : "newobj",
					"numinlets" : 2,
					"numoutlets" : 1,
					"outlettype" : [ "" ],
					"patching_rect" : [ 605.4375, 722.0, 29.5, 22.0 ],
					"text" : "+"
				}

			}
, 			{
				"box" : 				{
					"fontface" : 1,
					"fontsize" : 18.0,
					"id" : "obj-229",
					"maxclass" : "comment",
					"numinlets" : 1,
					"numoutlets" : 0,
					"patching_rect" : [ 59.4375, 48.0, 208.0, 27.0 ],
					"text" : "Basic Tremolo Effect"
				}

			}
, 			{
				"box" : 				{
					"bubble" : 1,
					"id" : "obj-230",
					"linecount" : 2,
					"maxclass" : "comment",
					"numinlets" : 1,
					"numoutlets" : 0,
					"patching_rect" : [ 833.6875, 121.5, 189.0, 37.0 ],
					"text" : "param name knob1 is the Rate of the tremolo effect"
				}

			}
, 			{
				"box" : 				{
					"id" : "obj-231",
					"maxclass" : "newobj",
					"numinlets" : 1,
					"numoutlets" : 1,
					"outlettype" : [ "" ],
					"patching_rect" : [ 604.4375, 336.0, 23.0, 22.0 ],
					"text" : "* 8"
				}

			}
, 			{
				"box" : 				{
					"id" : "obj-232",
					"maxclass" : "newobj",
					"numinlets" : 2,
					"numoutlets" : 1,
					"outlettype" : [ "" ],
					"patching_rect" : [ 604.4375, 375.0, 45.0, 22.0 ],
					"text" : "phasor"
				}

			}
, 			{
				"box" : 				{
					"id" : "obj-44",
					"maxclass" : "newobj",
					"numinlets" : 2,
					"numoutlets" : 1,
					"outlettype" : [ "" ],
					"patching_rect" : [ 605.4375, 655.0, 29.5, 22.0 ],
					"text" : "*"
				}

			}
, 			{
				"box" : 				{
					"id" : "obj-233",
					"maxclass" : "newobj",
					"numinlets" : 1,
					"numoutlets" : 2,
					"outlettype" : [ "", "" ],
					"patching_rect" : [ 604.4375, 428.0, 116.0, 22.0 ],
					"text" : "cycle @index phase"
				}

			}
, 			{
				"box" : 				{
					"id" : "obj-236",
					"maxclass" : "newobj",
					"numinlets" : 2,
					"numoutlets" : 1,
					"outlettype" : [ "" ],
					"patching_rect" : [ 516.1875, 778.5, 29.5, 22.0 ],
					"text" : "*"
				}

			}
, 			{
				"box" : 				{
					"color" : [ 0.317647, 0.654902, 0.976471, 1.0 ],
					"id" : "obj-237",
					"maxclass" : "newobj",
					"numinlets" : 0,
					"numoutlets" : 1,
					"outlettype" : [ "" ],
					"patching_rect" : [ 646.1875, 498.5, 217.0, 22.0 ],
					"text" : "param @name knob2 @min 0 @max 1"
				}

			}
, 			{
				"box" : 				{
					"color" : [ 0.317647, 0.654902, 0.976471, 1.0 ],
					"id" : "obj-238",
					"maxclass" : "newobj",
					"numinlets" : 0,
					"numoutlets" : 1,
					"outlettype" : [ "" ],
					"patching_rect" : [ 605.1875, 129.0, 217.0, 22.0 ],
					"text" : "param @name knob1 @min 0 @max 1"
				}

			}
, 			{
				"box" : 				{
					"color" : [ 0.999996, 0.999939, 0.041033, 1.0 ],
					"id" : "obj-239",
					"maxclass" : "newobj",
					"numinlets" : 1,
					"numoutlets" : 0,
					"patching_rect" : [ 59.4375, 908.0, 35.0, 22.0 ],
					"text" : "out 1"
				}

			}
, 			{
				"box" : 				{
					"color" : [ 0.999996, 0.999939, 0.041033, 1.0 ],
					"id" : "obj-240",
					"maxclass" : "newobj",
					"numinlets" : 0,
					"numoutlets" : 1,
					"outlettype" : [ "" ],
					"patching_rect" : [ 61.4375, 140.0, 190.0, 22.0 ],
					"text" : "in 1 @default 0. @min -1 @max 1"
				}

			}
 ],
		"lines" : [ 			{
				"patchline" : 				{
					"destination" : [ "obj-9", 0 ],
					"source" : [ "obj-10", 0 ]
				}

			}
, 			{
				"patchline" : 				{
					"destination" : [ "obj-57", 2 ],
					"midpoints" : [ 635.6875, 230.0, 635.6875, 230.0 ],
					"order" : 0,
					"source" : [ "obj-225", 0 ]
				}

			}
, 			{
				"patchline" : 				{
					"destination" : [ "obj-57", 1 ],
					"midpoints" : [ 635.6875, 222.0, 625.1875, 222.0 ],
					"order" : 1,
					"source" : [ "obj-225", 0 ]
				}

			}
, 			{
				"patchline" : 				{
					"destination" : [ "obj-7", 0 ],
					"source" : [ "obj-228", 0 ]
				}

			}
, 			{
				"patchline" : 				{
					"destination" : [ "obj-232", 0 ],
					"source" : [ "obj-231", 0 ]
				}

			}
, 			{
				"patchline" : 				{
					"destination" : [ "obj-233", 0 ],
					"source" : [ "obj-232", 0 ]
				}

			}
, 			{
				"patchline" : 				{
					"destination" : [ "obj-44", 0 ],
					"source" : [ "obj-233", 0 ]
				}

			}
, 			{
				"patchline" : 				{
					"destination" : [ "obj-4", 0 ],
					"midpoints" : [ 68.9375, 856.5, 272.6875, 856.5 ],
					"order" : 0,
					"source" : [ "obj-235", 0 ]
				}

			}
, 			{
				"patchline" : 				{
					"destination" : [ "obj-6", 0 ],
					"order" : 1,
					"source" : [ "obj-235", 0 ]
				}

			}
, 			{
				"patchline" : 				{
					"destination" : [ "obj-235", 1 ],
					"midpoints" : [ 525.6875, 811.0, 79.4375, 811.0 ],
					"source" : [ "obj-236", 0 ]
				}

			}
, 			{
				"patchline" : 				{
					"destination" : [ "obj-82", 0 ],
					"source" : [ "obj-237", 0 ]
				}

			}
, 			{
				"patchline" : 				{
					"destination" : [ "obj-57", 0 ],
					"source" : [ "obj-238", 0 ]
				}

			}
, 			{
				"patchline" : 				{
					"destination" : [ "obj-231", 0 ],
					"source" : [ "obj-24", 0 ]
				}

			}
, 			{
				"patchline" : 				{
					"destination" : [ "obj-235", 0 ],
					"order" : 1,
					"source" : [ "obj-240", 0 ]
				}

			}
, 			{
				"patchline" : 				{
					"destination" : [ "obj-236", 0 ],
					"midpoints" : [ 70.9375, 235.0, 525.6875, 235.0 ],
					"order" : 0,
					"source" : [ "obj-240", 0 ]
				}

			}
, 			{
				"patchline" : 				{
					"destination" : [ "obj-30", 0 ],
					"order" : 0,
					"source" : [ "obj-29", 0 ]
				}

			}
, 			{
				"patchline" : 				{
					"destination" : [ "obj-44", 1 ],
					"midpoints" : [ 655.6875, 645.5, 625.4375, 645.5 ],
					"order" : 1,
					"source" : [ "obj-29", 0 ]
				}

			}
, 			{
				"patchline" : 				{
					"destination" : [ "obj-39", 1 ],
					"midpoints" : [ 655.6875, 702.5, 625.4375, 702.5 ],
					"source" : [ "obj-30", 0 ]
				}

			}
, 			{
				"patchline" : 				{
					"destination" : [ "obj-236", 1 ],
					"midpoints" : [ 614.9375, 769.5, 536.1875, 769.5 ],
					"source" : [ "obj-39", 0 ]
				}

			}
, 			{
				"patchline" : 				{
					"destination" : [ "obj-70", 0 ],
					"source" : [ "obj-4", 0 ]
				}

			}
, 			{
				"patchline" : 				{
					"destination" : [ "obj-39", 0 ],
					"source" : [ "obj-44", 0 ]
				}

			}
, 			{
				"patchline" : 				{
					"destination" : [ "obj-225", 0 ],
					"order" : 1,
					"source" : [ "obj-56", 0 ]
				}

			}
, 			{
				"patchline" : 				{
					"destination" : [ "obj-80", 0 ],
					"midpoints" : [ 635.6875, 190.0, 676.6875, 190.0 ],
					"order" : 0,
					"source" : [ "obj-56", 0 ]
				}

			}
, 			{
				"patchline" : 				{
					"destination" : [ "obj-24", 0 ],
					"source" : [ "obj-57", 0 ]
				}

			}
, 			{
				"patchline" : 				{
					"destination" : [ "obj-239", 0 ],
					"source" : [ "obj-6", 0 ]
				}

			}
, 			{
				"patchline" : 				{
					"destination" : [ "obj-9", 2 ],
					"midpoints" : [ 110.6875, 535.5, 110.9375, 535.5 ],
					"order" : 0,
					"source" : [ "obj-7", 0 ]
				}

			}
, 			{
				"patchline" : 				{
					"destination" : [ "obj-9", 1 ],
					"midpoints" : [ 110.6875, 527.5, 100.4375, 527.5 ],
					"order" : 1,
					"source" : [ "obj-7", 0 ]
				}

			}
, 			{
				"patchline" : 				{
					"destination" : [ "obj-2", 0 ],
					"source" : [ "obj-8", 0 ]
				}

			}
, 			{
				"patchline" : 				{
					"destination" : [ "obj-82", 2 ],
					"midpoints" : [ 676.6875, 575.0, 676.6875, 575.0 ],
					"order" : 0,
					"source" : [ "obj-80", 0 ]
				}

			}
, 			{
				"patchline" : 				{
					"destination" : [ "obj-82", 1 ],
					"midpoints" : [ 676.6875, 567.0, 666.1875, 567.0 ],
					"order" : 1,
					"source" : [ "obj-80", 0 ]
				}

			}
, 			{
				"patchline" : 				{
					"destination" : [ "obj-29", 0 ],
					"source" : [ "obj-82", 0 ]
				}

			}
, 			{
				"patchline" : 				{
					"destination" : [ "obj-235", 2 ],
					"source" : [ "obj-9", 0 ]
				}

			}
 ],
		"editing_bgcolor" : [ 0.9, 0.9, 0.9, 1.0 ]
	}

}
