{
	"patcher" : 	{
		"fileversion" : 1,
		"appversion" : 		{
			"major" : 8,
			"minor" : 2,
			"revision" : 0,
			"architecture" : "x64",
			"modernui" : 1
		}
,
		"classnamespace" : "dsp.gen",
		"rect" : [ 162.0, 97.0, 1704.0, 1371.0 ],
		"bglocked" : 0,
		"openinpresentation" : 0,
		"default_fontsize" : 12.0,
		"default_fontface" : 0,
		"default_fontname" : "Arial",
		"gridonopen" : 1,
		"gridsize" : [ 15.0, 15.0 ],
		"gridsnaponopen" : 1,
		"objectsnaponopen" : 1,
		"statusbarvisible" : 2,
		"toolbarvisible" : 1,
		"lefttoolbarpinned" : 0,
		"toptoolbarpinned" : 0,
		"righttoolbarpinned" : 0,
		"bottomtoolbarpinned" : 0,
		"toolbars_unpinned_last_save" : 0,
		"tallnewobj" : 0,
		"boxanimatetime" : 200,
		"enablehscroll" : 1,
		"enablevscroll" : 1,
		"devicewidth" : 0.0,
		"description" : "",
		"digest" : "",
		"tags" : "",
		"style" : "",
		"subpatcher_template" : "",
		"assistshowspatchername" : 0,
		"title" : "Gen Effect Patch",
		"boxes" : [ 			{
				"box" : 				{
					"bubble" : 1,
					"id" : "obj-8",
					"linecount" : 6,
					"maxclass" : "comment",
					"numinlets" : 1,
					"numoutlets" : 0,
					"patching_rect" : [ 1742.433363080024719, 473.649313116073699, 323.0, 91.0 ],
					"text" : "Knob 6 - Controls Pitch Shift for 2nd Voice\n0 = No Octave change from original\n(0.01,0.25] / 2 Octave down from original (7.5)\n(0.25,0.50] / 1 Octave down from original (5)\n(0.50,0.75] / 1 Octave up from original (-10)\n(0.75,0.1] / 2 Octave down from original (-30)"
				}

			}
, 			{
				"box" : 				{
					"bubble" : 1,
					"id" : "obj-43",
					"linecount" : 8,
					"maxclass" : "comment",
					"numinlets" : 1,
					"numoutlets" : 0,
					"patching_rect" : [ 797.083336234092712, 109.333334684371948, 262.0, 118.0 ],
					"text" : "Recommended Test Scenario\nSoaring_Lead_Neck_Humbucker\nKnob1: 0.80 Original\nKnob2: 0.12 Voice 1 Vol\nKnob3: 0.25 Voice 2 Vol\nKnob4: 0.33 Delay of 0.033s for Voices\nKnob5: 0.90 Voice 1 is a +2 octave\nKnob6: 0.40 Voice 2 is a -1 octave"
				}

			}
, 			{
				"box" : 				{
					"bgcolor" : [ 0.996078431372549, 0.996078431372549, 0.996078431372549, 1.0 ],
					"id" : "obj-10",
					"linecount" : 8,
					"maxclass" : "comment",
					"numinlets" : 1,
					"numoutlets" : 0,
					"patching_rect" : [ 78.083336234092712, 100.333334684371948, 717.0, 127.0 ],
					"text" : "Knob 1,2,3 Control the volume of the three different voices you can have in the octaver. Knob 1 for Original, Knob 2 and 3 for Secondary voices.\n\nKnob 4 can activate a delay from 0 to 1/10th of a second for either the Original or the Secondary(s)\nSwitch 5 (perma type) Default OFF: means delay is for secondary, ON, means original is delayed.\n\nKnob 5 and 6 control The Pitch shifter for the Secondary voices. You can have 1 or 2 secondary voices. At ZERO/MIN, it means no pitch shifting (skipped), Then the knobs are divided into fourths declaring the amount of shift from -2, -1, +1, +2 octaves\n"
				}

			}
, 			{
				"box" : 				{
					"bubble" : 1,
					"id" : "obj-309",
					"linecount" : 13,
					"maxclass" : "comment",
					"numinlets" : 1,
					"numoutlets" : 0,
					"patching_rect" : [ 634.950006484985352, 951.46668016910553, 175.0, 185.0 ],
					"text" : "Knob4 controls the amount of delay for one of the voices. From 0 delay up to 1/10th of a second of delay\n\nSwitch 5 makes it so you delay the original sound, rather than the secondary octave(s) \n\nDefault/OFF Secondary voices gets delay; ON Original gets delay"
				}

			}
, 			{
				"box" : 				{
					"bubble" : 1,
					"id" : "obj-308",
					"linecount" : 2,
					"maxclass" : "comment",
					"numinlets" : 1,
					"numoutlets" : 0,
					"patching_rect" : [ 311.950006484985352, 783.0, 173.0, 37.0 ],
					"text" : "Knob1 controls the volume of the original input"
				}

			}
, 			{
				"box" : 				{
					"id" : "obj-307",
					"maxclass" : "newobj",
					"numinlets" : 2,
					"numoutlets" : 1,
					"outlettype" : [ "" ],
					"patching_rect" : [ 538.0, 812.0, 29.5, 22.0 ],
					"text" : "+"
				}

			}
, 			{
				"box" : 				{
					"id" : "obj-305",
					"linecount" : 3,
					"maxclass" : "newobj",
					"numinlets" : 3,
					"numoutlets" : 2,
					"outlettype" : [ "", "" ],
					"patching_rect" : [ 267.200006484985352, 1017.46668016910553, 133.0, 49.0 ],
					"text" : "expr if(in3 == 0) {out1 = in1\\; out2 = in2\\;} else {out1 = in2\\; out2 = in1\\;}"
				}

			}
, 			{
				"box" : 				{
					"id" : "obj-304",
					"maxclass" : "newobj",
					"numinlets" : 2,
					"numoutlets" : 1,
					"outlettype" : [ "" ],
					"patching_rect" : [ 391.199999988079071, 1106.333349406719208, 37.0, 22.0 ],
					"text" : "delay"
				}

			}
, 			{
				"box" : 				{
					"bubble" : 1,
					"id" : "obj-303",
					"linecount" : 2,
					"maxclass" : "comment",
					"numinlets" : 1,
					"numoutlets" : 0,
					"patching_rect" : [ 756.204403132200241, 369.450004601478668, 236.0, 37.0 ],
					"text" : "Controls the volume of the secondary octaves via knobs   2 and 3."
				}

			}
, 			{
				"box" : 				{
					"fontface" : 1,
					"fontsize" : 18.0,
					"id" : "obj-302",
					"maxclass" : "comment",
					"numinlets" : 1,
					"numoutlets" : 0,
					"patching_rect" : [ 1703.462740808725357, 387.950004601478668, 266.733346402645111, 27.0 ],
					"text" : "Params used: knob5 & knob 6"
				}

			}
, 			{
				"box" : 				{
					"fontface" : 1,
					"fontsize" : 18.0,
					"id" : "obj-301",
					"maxclass" : "comment",
					"numinlets" : 1,
					"numoutlets" : 0,
					"patching_rect" : [ 736.508782863616943, 277.333334684371948, 266.733346402645111, 27.0 ],
					"text" : "Params used: knob2 & knob 3"
				}

			}
, 			{
				"box" : 				{
					"id" : "obj-299",
					"maxclass" : "newobj",
					"numinlets" : 2,
					"numoutlets" : 1,
					"outlettype" : [ "" ],
					"patching_rect" : [ 515.000005185604095, 762.833353698253632, 29.5, 22.0 ],
					"text" : "+"
				}

			}
, 			{
				"box" : 				{
					"id" : "obj-298",
					"maxclass" : "newobj",
					"numinlets" : 2,
					"numoutlets" : 1,
					"outlettype" : [ "" ],
					"patching_rect" : [ 569.000005185604095, 762.833353698253632, 29.5, 22.0 ],
					"text" : "+"
				}

			}
, 			{
				"box" : 				{
					"bubble" : 1,
					"id" : "obj-297",
					"linecount" : 6,
					"maxclass" : "comment",
					"numinlets" : 1,
					"numoutlets" : 0,
					"patching_rect" : [ 1249.417664229869843, 477.649313116073699, 323.0, 91.0 ],
					"text" : "Knob 5 - Controls Pitch Shift for 2nd Voice\n0 = No Octave change from original\n(0.01,0.25] / 2 Octave down from original (7.5)\n(0.25,0.50] / 1 Octave down from original (5)\n(0.50,0.75] / 1 Octave up from original (-10)\n(0.75,0.1] / 2 Octave down from original (-30)"
				}

			}
, 			{
				"box" : 				{
					"id" : "obj-274",
					"maxclass" : "newobj",
					"numinlets" : 2,
					"numoutlets" : 1,
					"outlettype" : [ "" ],
					"patching_rect" : [ 1650.917664229869843, 1048.21197098493576, 97.0, 22.0 ],
					"text" : "+"
				}

			}
, 			{
				"box" : 				{
					"id" : "obj-275",
					"maxclass" : "newobj",
					"numinlets" : 1,
					"numoutlets" : 1,
					"outlettype" : [ "" ],
					"patching_rect" : [ 1752.417664229869843, 941.711972653865814, 26.0, 22.0 ],
					"text" : "* pi"
				}

			}
, 			{
				"box" : 				{
					"id" : "obj-276",
					"maxclass" : "newobj",
					"numinlets" : 1,
					"numoutlets" : 1,
					"outlettype" : [ "" ],
					"patching_rect" : [ 1611.80115795135498, 954.673129916191101, 33.0, 22.0 ],
					"text" : "* 0.1"
				}

			}
, 			{
				"box" : 				{
					"id" : "obj-277",
					"maxclass" : "newobj",
					"numinlets" : 1,
					"numoutlets" : 1,
					"outlettype" : [ "" ],
					"patching_rect" : [ 1583.30115795135498, 893.673129916191101, 33.0, 22.0 ],
					"text" : "* 0.1"
				}

			}
, 			{
				"box" : 				{
					"id" : "obj-278",
					"maxclass" : "newobj",
					"numinlets" : 3,
					"numoutlets" : 2,
					"outlettype" : [ "", "" ],
					"patching_rect" : [ 1553.80115795135498, 986.673129916191101, 77.0, 22.0 ],
					"text" : "delay 5000 2"
				}

			}
, 			{
				"box" : 				{
					"id" : "obj-279",
					"maxclass" : "newobj",
					"numinlets" : 1,
					"numoutlets" : 1,
					"outlettype" : [ "" ],
					"patching_rect" : [ 1772.097275733947754, 841.148859202861786, 76.0, 22.0 ],
					"text" : "* samplerate"
				}

			}
, 			{
				"box" : 				{
					"id" : "obj-280",
					"maxclass" : "newobj",
					"numinlets" : 1,
					"numoutlets" : 1,
					"outlettype" : [ "" ],
					"patching_rect" : [ 1752.417664229869843, 978.711972653865814, 27.0, 22.0 ],
					"text" : "cos"
				}

			}
, 			{
				"box" : 				{
					"id" : "obj-281",
					"maxclass" : "newobj",
					"numinlets" : 1,
					"numoutlets" : 1,
					"outlettype" : [ "" ],
					"patching_rect" : [ 1752.417664229869843, 910.711972653865814, 33.0, 22.0 ],
					"text" : "- 0.5"
				}

			}
, 			{
				"box" : 				{
					"id" : "obj-282",
					"maxclass" : "newobj",
					"numinlets" : 1,
					"numoutlets" : 1,
					"outlettype" : [ "" ],
					"patching_rect" : [ 1752.417664229869843, 796.294488966464996, 33.0, 22.0 ],
					"text" : "% 1."
				}

			}
, 			{
				"box" : 				{
					"id" : "obj-283",
					"maxclass" : "newobj",
					"numinlets" : 1,
					"numoutlets" : 1,
					"outlettype" : [ "" ],
					"patching_rect" : [ 1752.417664229869843, 759.294488966464996, 36.0, 22.0 ],
					"text" : "+ 0.5"
				}

			}
, 			{
				"box" : 				{
					"id" : "obj-284",
					"maxclass" : "newobj",
					"numinlets" : 2,
					"numoutlets" : 1,
					"outlettype" : [ "" ],
					"patching_rect" : [ 1728.917664229869843, 1020.045305132865906, 42.5, 22.0 ],
					"text" : "*"
				}

			}
, 			{
				"box" : 				{
					"id" : "obj-285",
					"maxclass" : "newobj",
					"numinlets" : 2,
					"numoutlets" : 1,
					"outlettype" : [ "" ],
					"patching_rect" : [ 1650.917664229869843, 1020.045305132865906, 42.5, 22.0 ],
					"text" : "*"
				}

			}
, 			{
				"box" : 				{
					"id" : "obj-286",
					"maxclass" : "newobj",
					"numinlets" : 1,
					"numoutlets" : 1,
					"outlettype" : [ "" ],
					"patching_rect" : [ 1674.417664229869843, 978.711972653865814, 27.0, 22.0 ],
					"text" : "cos"
				}

			}
, 			{
				"box" : 				{
					"id" : "obj-287",
					"maxclass" : "newobj",
					"numinlets" : 1,
					"numoutlets" : 1,
					"outlettype" : [ "" ],
					"patching_rect" : [ 1674.417664229869843, 941.711972653865814, 26.0, 22.0 ],
					"text" : "* pi"
				}

			}
, 			{
				"box" : 				{
					"id" : "obj-288",
					"maxclass" : "newobj",
					"numinlets" : 1,
					"numoutlets" : 1,
					"outlettype" : [ "" ],
					"patching_rect" : [ 1674.417664229869843, 910.711972653865814, 33.0, 22.0 ],
					"text" : "- 0.5"
				}

			}
, 			{
				"box" : 				{
					"id" : "obj-289",
					"maxclass" : "newobj",
					"numinlets" : 1,
					"numoutlets" : 1,
					"outlettype" : [ "" ],
					"patching_rect" : [ 1606.602128505706787, 841.148859202861786, 76.0, 22.0 ],
					"text" : "* samplerate"
				}

			}
, 			{
				"box" : 				{
					"id" : "obj-290",
					"maxclass" : "newobj",
					"numinlets" : 1,
					"numoutlets" : 1,
					"outlettype" : [ "" ],
					"patching_rect" : [ 1674.417664229869843, 796.294488966464996, 33.0, 22.0 ],
					"text" : "% 1."
				}

			}
, 			{
				"box" : 				{
					"id" : "obj-291",
					"maxclass" : "newobj",
					"numinlets" : 1,
					"numoutlets" : 1,
					"outlettype" : [ "" ],
					"patching_rect" : [ 1674.417664229869843, 759.294488966464996, 29.0, 22.0 ],
					"text" : "+ 0."
				}

			}
, 			{
				"box" : 				{
					"id" : "obj-292",
					"maxclass" : "newobj",
					"numinlets" : 2,
					"numoutlets" : 1,
					"outlettype" : [ "" ],
					"patching_rect" : [ 1674.417664229869843, 694.294488966464996, 45.0, 22.0 ],
					"text" : "phasor"
				}

			}
, 			{
				"box" : 				{
					"id" : "obj-293",
					"linecount" : 6,
					"maxclass" : "newobj",
					"numinlets" : 1,
					"numoutlets" : 2,
					"outlettype" : [ "", "" ],
					"patching_rect" : [ 1651.216692686080933, 576.400702023506142, 302.0, 89.0 ],
					"text" : "expr if(in1 == 0) { out1 = 0\\; out2= 0\\;} else if((in1>0.01)&&(in1<=1/4)) { out1 = 1\\; out2 = 7.5\\; } else if((in1>1/4)&&(in1<=1/2)) { out1 = 1\\; out2 = 5\\; } else if((in1>1/2)&&(in1<=3/4)) { out1 = 1\\; out2 = -10\\; } else if((in1>3/4)&&(in1<=1)) { out1 = 1\\; out2 = -30\\; } else {out1 = 0\\; out2 = 0\\;}"
				}

			}
, 			{
				"box" : 				{
					"id" : "obj-294",
					"maxclass" : "newobj",
					"numinlets" : 1,
					"numoutlets" : 1,
					"outlettype" : [ "" ],
					"patching_rect" : [ 1672.433363080024719, 499.39931807518019, 29.0, 22.0 ],
					"text" : "/ 16"
				}

			}
, 			{
				"box" : 				{
					"id" : "obj-295",
					"maxclass" : "newobj",
					"numinlets" : 0,
					"numoutlets" : 1,
					"outlettype" : [ "" ],
					"patching_rect" : [ 1672.433363080024719, 473.649313116073699, 68.0, 22.0 ],
					"text" : "samplerate"
				}

			}
, 			{
				"box" : 				{
					"id" : "obj-296",
					"maxclass" : "newobj",
					"numinlets" : 3,
					"numoutlets" : 1,
					"outlettype" : [ "" ],
					"patching_rect" : [ 1651.216692686080933, 527.69931796789183, 40.0, 22.0 ],
					"text" : "slide"
				}

			}
, 			{
				"box" : 				{
					"id" : "obj-236",
					"maxclass" : "newobj",
					"numinlets" : 1,
					"numoutlets" : 1,
					"outlettype" : [ "" ],
					"patching_rect" : [ 686.433346390724182, 387.950004601478668, 29.0, 22.0 ],
					"text" : "/ 16"
				}

			}
, 			{
				"box" : 				{
					"id" : "obj-237",
					"maxclass" : "newobj",
					"numinlets" : 0,
					"numoutlets" : 1,
					"outlettype" : [ "" ],
					"patching_rect" : [ 686.433346390724182, 362.19999964237212, 68.0, 22.0 ],
					"text" : "samplerate"
				}

			}
, 			{
				"box" : 				{
					"id" : "obj-238",
					"maxclass" : "newobj",
					"numinlets" : 3,
					"numoutlets" : 1,
					"outlettype" : [ "" ],
					"patching_rect" : [ 665.216675996780396, 416.250004494190307, 40.0, 22.0 ],
					"text" : "slide"
				}

			}
, 			{
				"box" : 				{
					"id" : "obj-234",
					"maxclass" : "newobj",
					"numinlets" : 2,
					"numoutlets" : 1,
					"outlettype" : [ "" ],
					"patching_rect" : [ 962.704403132200241, 535.699318087101119, 29.5, 22.0 ],
					"text" : "*"
				}

			}
, 			{
				"box" : 				{
					"id" : "obj-233",
					"maxclass" : "newobj",
					"numinlets" : 2,
					"numoutlets" : 1,
					"outlettype" : [ "" ],
					"patching_rect" : [ 412.704403132200241, 535.699318087101119, 29.5, 22.0 ],
					"text" : "*"
				}

			}
, 			{
				"box" : 				{
					"id" : "obj-232",
					"maxclass" : "newobj",
					"numinlets" : 2,
					"numoutlets" : 2,
					"outlettype" : [ "", "" ],
					"patching_rect" : [ 423.204403132200241, 481.649313235282989, 569.0, 22.0 ],
					"text" : "expr if(in1 == 0) { out1 = 0\\; out2 = 0\\; } else if(in2 == 1) { out1 = 0\\; out2 = in1\\; } else { out1 = in1\\; out2 = 0\\; }"
				}

			}
, 			{
				"box" : 				{
					"id" : "obj-230",
					"maxclass" : "newobj",
					"numinlets" : 2,
					"numoutlets" : 1,
					"outlettype" : [ "" ],
					"patching_rect" : [ 928.383334875106812, 535.699318087101119, 29.5, 22.0 ],
					"text" : "*"
				}

			}
, 			{
				"box" : 				{
					"id" : "obj-124",
					"maxclass" : "newobj",
					"numinlets" : 2,
					"numoutlets" : 1,
					"outlettype" : [ "" ],
					"patching_rect" : [ 1153.917664229869843, 1048.21197098493576, 97.0, 22.0 ],
					"text" : "+"
				}

			}
, 			{
				"box" : 				{
					"id" : "obj-125",
					"maxclass" : "newobj",
					"numinlets" : 1,
					"numoutlets" : 1,
					"outlettype" : [ "" ],
					"patching_rect" : [ 1255.417664229869843, 941.711972653865814, 26.0, 22.0 ],
					"text" : "* pi"
				}

			}
, 			{
				"box" : 				{
					"id" : "obj-126",
					"maxclass" : "newobj",
					"numinlets" : 1,
					"numoutlets" : 1,
					"outlettype" : [ "" ],
					"patching_rect" : [ 1114.80115795135498, 954.673129916191101, 33.0, 22.0 ],
					"text" : "* 0.1"
				}

			}
, 			{
				"box" : 				{
					"id" : "obj-127",
					"maxclass" : "newobj",
					"numinlets" : 1,
					"numoutlets" : 1,
					"outlettype" : [ "" ],
					"patching_rect" : [ 1086.30115795135498, 893.673129916191101, 33.0, 22.0 ],
					"text" : "* 0.1"
				}

			}
, 			{
				"box" : 				{
					"id" : "obj-128",
					"maxclass" : "newobj",
					"numinlets" : 3,
					"numoutlets" : 2,
					"outlettype" : [ "", "" ],
					"patching_rect" : [ 1056.80115795135498, 986.673129916191101, 77.0, 22.0 ],
					"text" : "delay 5000 2"
				}

			}
, 			{
				"box" : 				{
					"id" : "obj-130",
					"maxclass" : "newobj",
					"numinlets" : 1,
					"numoutlets" : 1,
					"outlettype" : [ "" ],
					"patching_rect" : [ 1266.097275733947754, 841.148859202861786, 76.0, 22.0 ],
					"text" : "* samplerate"
				}

			}
, 			{
				"box" : 				{
					"id" : "obj-146",
					"maxclass" : "newobj",
					"numinlets" : 1,
					"numoutlets" : 1,
					"outlettype" : [ "" ],
					"patching_rect" : [ 1255.417664229869843, 978.711972653865814, 27.0, 22.0 ],
					"text" : "cos"
				}

			}
, 			{
				"box" : 				{
					"id" : "obj-147",
					"maxclass" : "newobj",
					"numinlets" : 1,
					"numoutlets" : 1,
					"outlettype" : [ "" ],
					"patching_rect" : [ 1255.417664229869843, 910.711972653865814, 33.0, 22.0 ],
					"text" : "- 0.5"
				}

			}
, 			{
				"box" : 				{
					"id" : "obj-148",
					"maxclass" : "newobj",
					"numinlets" : 1,
					"numoutlets" : 1,
					"outlettype" : [ "" ],
					"patching_rect" : [ 1255.417664229869843, 796.294488966464996, 33.0, 22.0 ],
					"text" : "% 1."
				}

			}
, 			{
				"box" : 				{
					"id" : "obj-149",
					"maxclass" : "newobj",
					"numinlets" : 1,
					"numoutlets" : 1,
					"outlettype" : [ "" ],
					"patching_rect" : [ 1255.417664229869843, 759.294488966464996, 36.0, 22.0 ],
					"text" : "+ 0.5"
				}

			}
, 			{
				"box" : 				{
					"id" : "obj-150",
					"maxclass" : "newobj",
					"numinlets" : 2,
					"numoutlets" : 1,
					"outlettype" : [ "" ],
					"patching_rect" : [ 1231.917664229869843, 1020.045305132865906, 42.5, 22.0 ],
					"text" : "*"
				}

			}
, 			{
				"box" : 				{
					"id" : "obj-151",
					"maxclass" : "newobj",
					"numinlets" : 2,
					"numoutlets" : 1,
					"outlettype" : [ "" ],
					"patching_rect" : [ 1153.917664229869843, 1020.045305132865906, 42.5, 22.0 ],
					"text" : "*"
				}

			}
, 			{
				"box" : 				{
					"id" : "obj-152",
					"maxclass" : "newobj",
					"numinlets" : 1,
					"numoutlets" : 1,
					"outlettype" : [ "" ],
					"patching_rect" : [ 1177.417664229869843, 978.711972653865814, 27.0, 22.0 ],
					"text" : "cos"
				}

			}
, 			{
				"box" : 				{
					"id" : "obj-153",
					"maxclass" : "newobj",
					"numinlets" : 1,
					"numoutlets" : 1,
					"outlettype" : [ "" ],
					"patching_rect" : [ 1177.417664229869843, 941.711972653865814, 26.0, 22.0 ],
					"text" : "* pi"
				}

			}
, 			{
				"box" : 				{
					"id" : "obj-154",
					"maxclass" : "newobj",
					"numinlets" : 1,
					"numoutlets" : 1,
					"outlettype" : [ "" ],
					"patching_rect" : [ 1177.417664229869843, 910.711972653865814, 33.0, 22.0 ],
					"text" : "- 0.5"
				}

			}
, 			{
				"box" : 				{
					"id" : "obj-155",
					"maxclass" : "newobj",
					"numinlets" : 1,
					"numoutlets" : 1,
					"outlettype" : [ "" ],
					"patching_rect" : [ 1109.602128505706787, 841.148859202861786, 76.0, 22.0 ],
					"text" : "* samplerate"
				}

			}
, 			{
				"box" : 				{
					"id" : "obj-156",
					"maxclass" : "newobj",
					"numinlets" : 1,
					"numoutlets" : 1,
					"outlettype" : [ "" ],
					"patching_rect" : [ 1177.417664229869843, 796.294488966464996, 33.0, 22.0 ],
					"text" : "% 1."
				}

			}
, 			{
				"box" : 				{
					"id" : "obj-157",
					"maxclass" : "newobj",
					"numinlets" : 1,
					"numoutlets" : 1,
					"outlettype" : [ "" ],
					"patching_rect" : [ 1177.417664229869843, 759.294488966464996, 29.0, 22.0 ],
					"text" : "+ 0."
				}

			}
, 			{
				"box" : 				{
					"id" : "obj-158",
					"maxclass" : "newobj",
					"numinlets" : 2,
					"numoutlets" : 1,
					"outlettype" : [ "" ],
					"patching_rect" : [ 1177.417664229869843, 694.294488966464996, 45.0, 22.0 ],
					"text" : "phasor"
				}

			}
, 			{
				"box" : 				{
					"id" : "obj-110",
					"linecount" : 6,
					"maxclass" : "newobj",
					"numinlets" : 1,
					"numoutlets" : 2,
					"outlettype" : [ "", "" ],
					"patching_rect" : [ 1154.216692686080933, 576.400702023506142, 302.0, 89.0 ],
					"text" : "expr if(in1 == 0) { out1 = 0\\; out2= 0\\;} else if((in1>0.01)&&(in1<=1/4)) { out1 = 1\\; out2 = 7.5\\; } else if((in1>1/4)&&(in1<=1/2)) { out1 = 1\\; out2 = 5\\; } else if((in1>1/2)&&(in1<=3/4)) { out1 = 1\\; out2 = -10\\; } else if((in1>3/4)&&(in1<=1)) { out1 = 1\\; out2 = -30\\; } else {out1 = 0\\; out2 = 0\\;}"
				}

			}
, 			{
				"box" : 				{
					"color" : [ 0.0, 0.666666666666667, 0.890196078431372, 1.0 ],
					"id" : "obj-61",
					"linecount" : 2,
					"maxclass" : "newobj",
					"numinlets" : 0,
					"numoutlets" : 1,
					"outlettype" : [ "" ],
					"patching_rect" : [ 286.199999988079071, 972.46668016910553, 118.0, 35.0 ],
					"text" : "param @name sw5 @min 0 @max 1"
				}

			}
, 			{
				"box" : 				{
					"id" : "obj-56",
					"maxclass" : "newobj",
					"numinlets" : 1,
					"numoutlets" : 1,
					"outlettype" : [ "" ],
					"patching_rect" : [ 409.199999988079071, 1004.333343970775559, 100.0, 22.0 ],
					"text" : "scale 0 1 0 100 1"
				}

			}
, 			{
				"box" : 				{
					"color" : [ 0.0, 0.666666666666667, 0.890196078431372, 1.0 ],
					"id" : "obj-55",
					"maxclass" : "newobj",
					"numinlets" : 0,
					"numoutlets" : 1,
					"outlettype" : [ "" ],
					"patching_rect" : [ 409.199999988079071, 972.46668016910553, 217.0, 22.0 ],
					"text" : "param @name knob4 @min 0 @max 1"
				}

			}
, 			{
				"box" : 				{
					"id" : "obj-36",
					"maxclass" : "newobj",
					"numinlets" : 1,
					"numoutlets" : 1,
					"outlettype" : [ "" ],
					"patching_rect" : [ 409.199999988079071, 1033.133344399929001, 70.0, 22.0 ],
					"text" : "mstosamps"
				}

			}
, 			{
				"box" : 				{
					"color" : [ 0.0, 0.666666666666667, 0.890196078431372, 1.0 ],
					"id" : "obj-19",
					"maxclass" : "newobj",
					"numinlets" : 0,
					"numoutlets" : 1,
					"outlettype" : [ "" ],
					"patching_rect" : [ 1651.216692686080933, 437.150005006790252, 217.0, 22.0 ],
					"text" : "param @name knob6 @min 0 @max 1"
				}

			}
, 			{
				"box" : 				{
					"color" : [ 0.0, 0.666666666666667, 0.890196078431372, 1.0 ],
					"id" : "obj-16",
					"maxclass" : "newobj",
					"numinlets" : 0,
					"numoutlets" : 1,
					"outlettype" : [ "" ],
					"patching_rect" : [ 1154.216692686080933, 442.149313116073699, 217.0, 22.0 ],
					"text" : "param @name knob5 @min 0 @max 1"
				}

			}
, 			{
				"box" : 				{
					"id" : "obj-4",
					"maxclass" : "newobj",
					"numinlets" : 1,
					"numoutlets" : 1,
					"outlettype" : [ "" ],
					"patching_rect" : [ 1175.433363080024719, 499.39931807518019, 29.0, 22.0 ],
					"text" : "/ 16"
				}

			}
, 			{
				"box" : 				{
					"id" : "obj-6",
					"maxclass" : "newobj",
					"numinlets" : 0,
					"numoutlets" : 1,
					"outlettype" : [ "" ],
					"patching_rect" : [ 1175.433363080024719, 473.649313116073699, 68.0, 22.0 ],
					"text" : "samplerate"
				}

			}
, 			{
				"box" : 				{
					"id" : "obj-15",
					"maxclass" : "newobj",
					"numinlets" : 3,
					"numoutlets" : 1,
					"outlettype" : [ "" ],
					"patching_rect" : [ 1154.216692686080933, 527.69931796789183, 40.0, 22.0 ],
					"text" : "slide"
				}

			}
, 			{
				"box" : 				{
					"color" : [ 0.0, 0.666666666666667, 0.890196078431372, 1.0 ],
					"id" : "obj-89",
					"maxclass" : "newobj",
					"numinlets" : 0,
					"numoutlets" : 1,
					"outlettype" : [ "" ],
					"patching_rect" : [ 666.523272216320038, 337.333334147930145, 217.0, 22.0 ],
					"text" : "param @name knob3 @min 0 @max 1"
				}

			}
, 			{
				"box" : 				{
					"id" : "obj-67",
					"maxclass" : "newobj",
					"numinlets" : 2,
					"numoutlets" : 1,
					"outlettype" : [ "" ],
					"patching_rect" : [ 378.383334875106812, 535.699318087101119, 29.5, 22.0 ],
					"text" : "*"
				}

			}
, 			{
				"box" : 				{
					"id" : "obj-62",
					"maxclass" : "newobj",
					"numinlets" : 2,
					"numoutlets" : 2,
					"outlettype" : [ "", "" ],
					"patching_rect" : [ 388.883334875106812, 450.149313235282989, 569.0, 22.0 ],
					"text" : "expr if(in1 == 0) { out1 = 0\\; out2 = 0\\; } else if(in2 == 1) { out1 = 0\\; out2 = in1\\; } else { out1 = in1\\; out2 = 0\\; }"
				}

			}
, 			{
				"box" : 				{
					"id" : "obj-69",
					"maxclass" : "newobj",
					"numinlets" : 1,
					"numoutlets" : 1,
					"outlettype" : [ "" ],
					"patching_rect" : [ 410.100005269050598, 387.950004601478668, 29.0, 22.0 ],
					"text" : "/ 16"
				}

			}
, 			{
				"box" : 				{
					"id" : "obj-71",
					"maxclass" : "newobj",
					"numinlets" : 0,
					"numoutlets" : 1,
					"outlettype" : [ "" ],
					"patching_rect" : [ 410.100005269050598, 362.19999964237212, 68.0, 22.0 ],
					"text" : "samplerate"
				}

			}
, 			{
				"box" : 				{
					"id" : "obj-72",
					"maxclass" : "newobj",
					"numinlets" : 3,
					"numoutlets" : 1,
					"outlettype" : [ "" ],
					"patching_rect" : [ 388.883334875106812, 416.250004494190307, 40.0, 22.0 ],
					"text" : "slide"
				}

			}
, 			{
				"box" : 				{
					"id" : "obj-225",
					"maxclass" : "newobj",
					"numinlets" : 1,
					"numoutlets" : 1,
					"outlettype" : [ "" ],
					"patching_rect" : [ 267.200006484985352, 768.733353197574615, 29.0, 22.0 ],
					"text" : "/ 16"
				}

			}
, 			{
				"box" : 				{
					"id" : "obj-63",
					"maxclass" : "newobj",
					"numinlets" : 0,
					"numoutlets" : 1,
					"outlettype" : [ "" ],
					"patching_rect" : [ 267.200006484985352, 735.733348119258835, 68.0, 22.0 ],
					"text" : "samplerate"
				}

			}
, 			{
				"box" : 				{
					"id" : "obj-64",
					"maxclass" : "newobj",
					"numinlets" : 3,
					"numoutlets" : 1,
					"outlettype" : [ "" ],
					"patching_rect" : [ 246.333336114883423, 806.033353209495544, 40.0, 22.0 ],
					"text" : "slide"
				}

			}
, 			{
				"box" : 				{
					"color" : [ 0.0, 0.666666666666667, 0.890196078431372, 1.0 ],
					"id" : "obj-54",
					"maxclass" : "newobj",
					"numinlets" : 0,
					"numoutlets" : 1,
					"outlettype" : [ "" ],
					"patching_rect" : [ 388.933334767818451, 337.333334147930145, 217.0, 22.0 ],
					"text" : "param @name knob2 @min 0 @max 1"
				}

			}
, 			{
				"box" : 				{
					"id" : "obj-50",
					"maxclass" : "newobj",
					"numinlets" : 2,
					"numoutlets" : 1,
					"outlettype" : [ "" ],
					"patching_rect" : [ 235.833336114883423, 875.533348369598343, 29.5, 22.0 ],
					"text" : "*"
				}

			}
, 			{
				"box" : 				{
					"fontface" : 1,
					"fontsize" : 18.0,
					"id" : "obj-11",
					"linecount" : 2,
					"maxclass" : "comment",
					"numinlets" : 1,
					"numoutlets" : 0,
					"patching_rect" : [ 246.333336114883423, 630.711972653865814, 305.0, 47.0 ],
					"text" : "Params used: knobs 1 & 4\nSwitch 5"
				}

			}
, 			{
				"box" : 				{
					"color" : [ 0.0, 0.666666666666667, 0.890196078431372, 1.0 ],
					"id" : "obj-47",
					"maxclass" : "newobj",
					"numinlets" : 0,
					"numoutlets" : 1,
					"outlettype" : [ "" ],
					"patching_rect" : [ 246.333336114883423, 706.266684353351593, 217.0, 22.0 ],
					"text" : "param @name knob1 @min 0 @max 1"
				}

			}
, 			{
				"box" : 				{
					"id" : "obj-7",
					"maxclass" : "newobj",
					"numinlets" : 1,
					"numoutlets" : 1,
					"outlettype" : [ "" ],
					"patching_rect" : [ 474.950006484985352, 1242.666679620742798, 51.0, 22.0 ],
					"text" : "clip -1 1"
				}

			}
, 			{
				"box" : 				{
					"id" : "obj-9",
					"maxclass" : "newobj",
					"numinlets" : 1,
					"numoutlets" : 1,
					"outlettype" : [ "" ],
					"patching_rect" : [ 267.200006484985352, 1242.666679620742798, 51.0, 22.0 ],
					"text" : "clip -1 1"
				}

			}
, 			{
				"box" : 				{
					"id" : "obj-235",
					"maxclass" : "newobj",
					"numinlets" : 3,
					"numoutlets" : 1,
					"outlettype" : [ "" ],
					"patching_rect" : [ 267.200006484985352, 1191.666679620742798, 40.0, 22.0 ],
					"text" : "mix"
				}

			}
, 			{
				"box" : 				{
					"bubble" : 1,
					"bubblepoint" : 0.0,
					"bubbleside" : 2,
					"id" : "obj-22",
					"maxclass" : "comment",
					"numinlets" : 1,
					"numoutlets" : 0,
					"patching_rect" : [ 312.950006484985352, 1183.166679620742798, 132.0, 39.0 ],
					"text" : "dual mono output",
					"textjustification" : 1
				}

			}
, 			{
				"box" : 				{
					"bubble" : 1,
					"id" : "obj-23",
					"maxclass" : "comment",
					"numinlets" : 1,
					"numoutlets" : 0,
					"patching_rect" : [ 312.083336234092712, 270.333334684371948, 150.0, 24.0 ],
					"text" : "mono audio input"
				}

			}
, 			{
				"box" : 				{
					"color" : [ 0.999996, 0.999939, 0.041033, 1.0 ],
					"id" : "obj-240",
					"maxclass" : "newobj",
					"numinlets" : 0,
					"numoutlets" : 1,
					"outlettype" : [ "" ],
					"patching_rect" : [ 114.333336234092712, 270.333334684371948, 190.0, 22.0 ],
					"text" : "in 1 @default 0. @min -1 @max 1"
				}

			}
, 			{
				"box" : 				{
					"fontface" : 0,
					"fontsize" : 12.0,
					"id" : "obj-226",
					"linecount" : 2,
					"maxclass" : "comment",
					"numinlets" : 1,
					"numoutlets" : 0,
					"patching_rect" : [ 212.533340096473694, 68.333334684371948, 99.0, 33.0 ],
					"text" : "by A Gerov\nWPI student"
				}

			}
, 			{
				"box" : 				{
					"color" : [ 0.999996, 0.999939, 0.041033, 1.0 ],
					"id" : "obj-70",
					"maxclass" : "newobj",
					"numinlets" : 1,
					"numoutlets" : 0,
					"patching_rect" : [ 474.950006484985352, 1292.666679620742798, 35.0, 22.0 ],
					"text" : "out 2"
				}

			}
, 			{
				"box" : 				{
					"fontface" : 1,
					"fontsize" : 18.0,
					"id" : "obj-229",
					"maxclass" : "comment",
					"numinlets" : 1,
					"numoutlets" : 0,
					"patching_rect" : [ 78.083336234092712, 71.333334684371948, 208.0, 27.0 ],
					"text" : "Octaver"
				}

			}
, 			{
				"box" : 				{
					"color" : [ 0.999996, 0.999939, 0.041033, 1.0 ],
					"id" : "obj-239",
					"maxclass" : "newobj",
					"numinlets" : 1,
					"numoutlets" : 0,
					"patching_rect" : [ 267.200006484985352, 1292.666679620742798, 35.0, 22.0 ],
					"text" : "out 1"
				}

			}
, 			{
				"box" : 				{
					"bgcolor" : [ 0.0, 0.0, 0.0, 1.0 ],
					"fontface" : 1,
					"fontsize" : 14.0,
					"id" : "obj-306",
					"maxclass" : "comment",
					"numinlets" : 1,
					"numoutlets" : 0,
					"patching_rect" : [ 225.333341300487518, 680.711972653865814, 405.825453519821167, 22.0 ],
					"text" : "Volume Final Handler",
					"textcolor" : [ 1.0, 1.0, 1.0, 1.0 ],
					"textjustification" : 1
				}

			}
, 			{
				"box" : 				{
					"angle" : 270.0,
					"bgcolor" : [ 0.129411764705882, 0.137254901960784, 0.050980392156863, 0.31 ],
					"bordercolor" : [ 0.494117647058824, 0.517647058823529, 0.2, 0.31 ],
					"id" : "obj-14",
					"maxclass" : "panel",
					"mode" : 0,
					"numinlets" : 1,
					"numoutlets" : 0,
					"patching_rect" : [ 225.333341300487518, 699.898315131664276, 405.825453519821167, 236.270076155662537 ],
					"proportion" : 0.5,
					"rounded" : 0
				}

			}
, 			{
				"box" : 				{
					"bgcolor" : [ 0.0, 0.0, 0.0, 1.0 ],
					"fontface" : 1,
					"fontsize" : 14.0,
					"id" : "obj-90",
					"maxclass" : "comment",
					"numinlets" : 1,
					"numoutlets" : 0,
					"patching_rect" : [ 365.164251103997231, 306.333334684371948, 638.077878162264824, 22.0 ],
					"text" : "Secondary Octaves Toggle and Volume Handling",
					"textcolor" : [ 1.0, 1.0, 1.0, 1.0 ],
					"textjustification" : 1
				}

			}
, 			{
				"box" : 				{
					"angle" : 270.0,
					"bgcolor" : [ 0.583789348602295, 0.64407742023468, 0.698900818824768, 1.0 ],
					"bordercolor" : [ 0.494117647058824, 0.517647058823529, 0.2, 0.31 ],
					"id" : "obj-95",
					"maxclass" : "panel",
					"mode" : 0,
					"numinlets" : 1,
					"numoutlets" : 0,
					"patching_rect" : [ 365.164251103997231, 326.396592736244202, 638.077878162264824, 242.252720379829441 ],
					"proportion" : 0.5,
					"rounded" : 0
				}

			}
, 			{
				"box" : 				{
					"bgcolor" : [ 0.0, 0.0, 0.0, 1.0 ],
					"fontface" : 1,
					"fontsize" : 14.0,
					"id" : "obj-17",
					"maxclass" : "comment",
					"numinlets" : 1,
					"numoutlets" : 0,
					"patching_rect" : [ 1039.637295931577682, 415.150005006790252, 930.558791279792786, 22.0 ],
					"text" : "Octave Selection Handling",
					"textcolor" : [ 1.0, 1.0, 1.0, 1.0 ],
					"textjustification" : 1
				}

			}
, 			{
				"box" : 				{
					"angle" : 270.0,
					"bgcolor" : [ 0.074509803921569, 0.686274509803922, 0.301960784313725, 0.31 ],
					"bordercolor" : [ 0.494117647058824, 0.517647058823529, 0.2, 0.31 ],
					"id" : "obj-18",
					"maxclass" : "panel",
					"mode" : 0,
					"numinlets" : 1,
					"numoutlets" : 0,
					"patching_rect" : [ 1039.637295931577682, 415.150005006790252, 1048.558791279792786, 683.499308109283447 ],
					"proportion" : 0.5,
					"rounded" : 0
				}

			}
, 			{
				"box" : 				{
					"bgcolor" : [ 0.0, 0.0, 0.0, 1.0 ],
					"fontface" : 1,
					"fontsize" : 14.0,
					"id" : "obj-57",
					"maxclass" : "comment",
					"numinlets" : 1,
					"numoutlets" : 0,
					"patching_rect" : [ 225.333341300487518, 932.168391287326813, 405.825453519821167, 22.0 ],
					"text" : "Delay Handler",
					"textcolor" : [ 1.0, 1.0, 1.0, 1.0 ],
					"textjustification" : 1
				}

			}
, 			{
				"box" : 				{
					"angle" : 270.0,
					"bgcolor" : [ 0.129411764705882, 0.137254901960784, 0.050980392156863, 0.31 ],
					"bordercolor" : [ 0.494117647058824, 0.517647058823529, 0.2, 0.31 ],
					"id" : "obj-58",
					"maxclass" : "panel",
					"mode" : 0,
					"numinlets" : 1,
					"numoutlets" : 0,
					"patching_rect" : [ 225.333341300487518, 945.19660347700119, 405.825453519821167, 226.470076143741608 ],
					"proportion" : 0.5,
					"rounded" : 0
				}

			}
 ],
		"lines" : [ 			{
				"patchline" : 				{
					"color" : [ 0.0, 0.717139065265656, 0.70884895324707, 1.0 ],
					"destination" : [ "obj-158", 0 ],
					"midpoints" : [ 1446.716692686080933, 679.347595494985626, 1186.917664229869843, 679.347595494985626 ],
					"source" : [ "obj-110", 1 ]
				}

			}
, 			{
				"patchline" : 				{
					"color" : [ 0.435419410467148, 0.722331643104553, 0.440089106559753, 1.0 ],
					"destination" : [ "obj-62", 1 ],
					"midpoints" : [ 1163.716692686080933, 678.400702023506256, 1041.050013780593872, 678.400702023506256, 1041.050013780593872, 439.149313235282989, 948.383334875106812, 439.149313235282989 ],
					"source" : [ "obj-110", 0 ]
				}

			}
, 			{
				"patchline" : 				{
					"color" : [ 0.7603360414505, 0.232019513845444, 0.398033499717712, 1.0 ],
					"destination" : [ "obj-298", 0 ],
					"midpoints" : [ 1163.417664229869843, 1080.21197098493576, 1032.958834707736969, 1080.21197098493576, 1032.958834707736969, 750.833353698253632, 578.500005185604095, 750.833353698253632 ],
					"source" : [ "obj-124", 0 ]
				}

			}
, 			{
				"patchline" : 				{
					"destination" : [ "obj-146", 0 ],
					"source" : [ "obj-125", 0 ]
				}

			}
, 			{
				"patchline" : 				{
					"destination" : [ "obj-128", 1 ],
					"source" : [ "obj-127", 0 ]
				}

			}
, 			{
				"patchline" : 				{
					"destination" : [ "obj-151", 0 ],
					"midpoints" : [ 1066.30115795135498, 1014.731381833553314, 1163.417664229869843, 1014.731381833553314 ],
					"source" : [ "obj-128", 0 ]
				}

			}
, 			{
				"patchline" : 				{
					"destination" : [ "obj-126", 0 ],
					"midpoints" : [ 1275.597275733947754, 893.362451076507568, 1124.30115795135498, 893.362451076507568 ],
					"source" : [ "obj-130", 0 ]
				}

			}
, 			{
				"patchline" : 				{
					"destination" : [ "obj-150", 1 ],
					"source" : [ "obj-146", 0 ]
				}

			}
, 			{
				"patchline" : 				{
					"destination" : [ "obj-125", 0 ],
					"source" : [ "obj-147", 0 ]
				}

			}
, 			{
				"patchline" : 				{
					"destination" : [ "obj-130", 0 ],
					"midpoints" : [ 1264.917664229869843, 829.221674084663391, 1275.597275733947754, 829.221674084663391 ],
					"order" : 0,
					"source" : [ "obj-148", 0 ]
				}

			}
, 			{
				"patchline" : 				{
					"destination" : [ "obj-147", 0 ],
					"order" : 1,
					"source" : [ "obj-148", 0 ]
				}

			}
, 			{
				"patchline" : 				{
					"destination" : [ "obj-148", 0 ],
					"source" : [ "obj-149", 0 ]
				}

			}
, 			{
				"patchline" : 				{
					"destination" : [ "obj-110", 0 ],
					"source" : [ "obj-15", 0 ]
				}

			}
, 			{
				"patchline" : 				{
					"destination" : [ "obj-124", 1 ],
					"source" : [ "obj-150", 0 ]
				}

			}
, 			{
				"patchline" : 				{
					"destination" : [ "obj-124", 0 ],
					"source" : [ "obj-151", 0 ]
				}

			}
, 			{
				"patchline" : 				{
					"destination" : [ "obj-151", 1 ],
					"source" : [ "obj-152", 0 ]
				}

			}
, 			{
				"patchline" : 				{
					"destination" : [ "obj-152", 0 ],
					"source" : [ "obj-153", 0 ]
				}

			}
, 			{
				"patchline" : 				{
					"destination" : [ "obj-153", 0 ],
					"source" : [ "obj-154", 0 ]
				}

			}
, 			{
				"patchline" : 				{
					"destination" : [ "obj-127", 0 ],
					"midpoints" : [ 1119.102128505706787, 877.910994559526443, 1095.80115795135498, 877.910994559526443 ],
					"source" : [ "obj-155", 0 ]
				}

			}
, 			{
				"patchline" : 				{
					"destination" : [ "obj-154", 0 ],
					"order" : 0,
					"source" : [ "obj-156", 0 ]
				}

			}
, 			{
				"patchline" : 				{
					"destination" : [ "obj-155", 0 ],
					"midpoints" : [ 1186.917664229869843, 829.221674084663391, 1119.102128505706787, 829.221674084663391 ],
					"order" : 1,
					"source" : [ "obj-156", 0 ]
				}

			}
, 			{
				"patchline" : 				{
					"destination" : [ "obj-156", 0 ],
					"source" : [ "obj-157", 0 ]
				}

			}
, 			{
				"patchline" : 				{
					"destination" : [ "obj-149", 0 ],
					"midpoints" : [ 1186.917664229869843, 742.794488966464996, 1264.917664229869843, 742.794488966464996 ],
					"order" : 0,
					"source" : [ "obj-158", 0 ]
				}

			}
, 			{
				"patchline" : 				{
					"destination" : [ "obj-157", 0 ],
					"order" : 1,
					"source" : [ "obj-158", 0 ]
				}

			}
, 			{
				"patchline" : 				{
					"destination" : [ "obj-15", 0 ],
					"source" : [ "obj-16", 0 ]
				}

			}
, 			{
				"patchline" : 				{
					"destination" : [ "obj-296", 0 ],
					"source" : [ "obj-19", 0 ]
				}

			}
, 			{
				"patchline" : 				{
					"destination" : [ "obj-64", 2 ],
					"midpoints" : [ 276.700006484985352, 801.533353209495544, 276.833336114883423, 801.533353209495544 ],
					"order" : 0,
					"source" : [ "obj-225", 0 ]
				}

			}
, 			{
				"patchline" : 				{
					"destination" : [ "obj-64", 1 ],
					"midpoints" : [ 276.700006484985352, 793.533353209495544, 266.333336114883423, 793.533353209495544 ],
					"order" : 1,
					"source" : [ "obj-225", 0 ]
				}

			}
, 			{
				"patchline" : 				{
					"color" : [ 0.645066678524017, 0.041204884648323, 0.503929972648621, 1.0 ],
					"destination" : [ "obj-128", 0 ],
					"midpoints" : [ 937.883334875106812, 677.686224001646224, 1066.30115795135498, 677.686224001646224 ],
					"source" : [ "obj-230", 0 ]
				}

			}
, 			{
				"patchline" : 				{
					"destination" : [ "obj-233", 1 ],
					"source" : [ "obj-232", 0 ]
				}

			}
, 			{
				"patchline" : 				{
					"destination" : [ "obj-234", 1 ],
					"source" : [ "obj-232", 1 ]
				}

			}
, 			{
				"patchline" : 				{
					"color" : [ 0.185837656259537, 0.185837656259537, 0.185837656259537, 1.0 ],
					"destination" : [ "obj-299", 1 ],
					"midpoints" : [ 422.204403132200241, 576.766335892677375, 535.000005185604095, 576.766335892677375 ],
					"source" : [ "obj-233", 0 ]
				}

			}
, 			{
				"patchline" : 				{
					"color" : [ 0.144715711474419, 0.279950678348541, 0.731431841850281, 1.0 ],
					"destination" : [ "obj-278", 0 ],
					"midpoints" : [ 972.204403132200241, 679.686224001646224, 1563.30115795135498, 679.686224001646224 ],
					"source" : [ "obj-234", 0 ]
				}

			}
, 			{
				"patchline" : 				{
					"destination" : [ "obj-7", 0 ],
					"midpoints" : [ 276.700006484985352, 1225.166679620742798, 484.450006484985352, 1225.166679620742798 ],
					"order" : 0,
					"source" : [ "obj-235", 0 ]
				}

			}
, 			{
				"patchline" : 				{
					"destination" : [ "obj-9", 0 ],
					"order" : 1,
					"source" : [ "obj-235", 0 ]
				}

			}
, 			{
				"patchline" : 				{
					"destination" : [ "obj-238", 2 ],
					"midpoints" : [ 695.933346390724182, 412.60000457763681, 695.716675996780396, 412.60000457763681 ],
					"order" : 0,
					"source" : [ "obj-236", 0 ]
				}

			}
, 			{
				"patchline" : 				{
					"destination" : [ "obj-238", 1 ],
					"midpoints" : [ 695.933346390724182, 412.600004547834487, 685.216675996780396, 412.600004547834487 ],
					"order" : 1,
					"source" : [ "obj-236", 0 ]
				}

			}
, 			{
				"patchline" : 				{
					"destination" : [ "obj-236", 0 ],
					"source" : [ "obj-237", 0 ]
				}

			}
, 			{
				"patchline" : 				{
					"destination" : [ "obj-232", 0 ],
					"midpoints" : [ 674.716675996780396, 475.449658864736648, 432.704403132200241, 475.449658864736648 ],
					"source" : [ "obj-238", 0 ]
				}

			}
, 			{
				"patchline" : 				{
					"color" : [ 0.251449763774872, 0.730692982673645, 0.315247893333435, 1.0 ],
					"destination" : [ "obj-230", 0 ],
					"midpoints" : [ 123.833336234092712, 513.516329365968772, 937.883334875106812, 513.516329365968772 ],
					"order" : 1,
					"source" : [ "obj-240", 0 ]
				}

			}
, 			{
				"patchline" : 				{
					"destination" : [ "obj-233", 0 ],
					"midpoints" : [ 123.833336234092712, 514.182996052503654, 422.204403132200241, 514.182996052503654 ],
					"order" : 2,
					"source" : [ "obj-240", 0 ]
				}

			}
, 			{
				"patchline" : 				{
					"color" : [ 0.505037188529968, 0.52378523349762, 0.716791987419128, 1.0 ],
					"destination" : [ "obj-234", 0 ],
					"midpoints" : [ 123.833336234092712, 512.016329097747871, 972.204403132200241, 512.016329097747871 ],
					"order" : 0,
					"source" : [ "obj-240", 0 ]
				}

			}
, 			{
				"patchline" : 				{
					"color" : [ 0.70100736618042, 0.704047322273254, 0.640765726566315, 1.0 ],
					"destination" : [ "obj-50", 0 ],
					"midpoints" : [ 123.833336234092712, 854.933341526985259, 245.333336114883423, 854.933341526985259 ],
					"order" : 4,
					"source" : [ "obj-240", 0 ]
				}

			}
, 			{
				"patchline" : 				{
					"destination" : [ "obj-67", 0 ],
					"midpoints" : [ 123.833336234092712, 512.849662679433891, 387.883334875106812, 512.849662679433891 ],
					"order" : 3,
					"source" : [ "obj-240", 0 ]
				}

			}
, 			{
				"patchline" : 				{
					"color" : [ 0.022692194208503, 0.700692892074585, 0.709371209144592, 1.0 ],
					"destination" : [ "obj-298", 1 ],
					"midpoints" : [ 1660.417664229869843, 1080.21197098493576, 1024.708834707736969, 1080.21197098493576, 1024.708834707736969, 749.833353698253632, 589.000005185604095, 749.833353698253632 ],
					"source" : [ "obj-274", 0 ]
				}

			}
, 			{
				"patchline" : 				{
					"destination" : [ "obj-280", 0 ],
					"source" : [ "obj-275", 0 ]
				}

			}
, 			{
				"patchline" : 				{
					"destination" : [ "obj-278", 1 ],
					"source" : [ "obj-277", 0 ]
				}

			}
, 			{
				"patchline" : 				{
					"destination" : [ "obj-285", 0 ],
					"midpoints" : [ 1563.30115795135498, 1014.731381833553314, 1660.417664229869843, 1014.731381833553314 ],
					"source" : [ "obj-278", 0 ]
				}

			}
, 			{
				"patchline" : 				{
					"destination" : [ "obj-276", 0 ],
					"midpoints" : [ 1781.597275733947754, 893.362451076507568, 1621.30115795135498, 893.362451076507568 ],
					"source" : [ "obj-279", 0 ]
				}

			}
, 			{
				"patchline" : 				{
					"destination" : [ "obj-284", 1 ],
					"source" : [ "obj-280", 0 ]
				}

			}
, 			{
				"patchline" : 				{
					"destination" : [ "obj-275", 0 ],
					"source" : [ "obj-281", 0 ]
				}

			}
, 			{
				"patchline" : 				{
					"destination" : [ "obj-279", 0 ],
					"midpoints" : [ 1761.917664229869843, 829.221674084663391, 1781.597275733947754, 829.221674084663391 ],
					"order" : 0,
					"source" : [ "obj-282", 0 ]
				}

			}
, 			{
				"patchline" : 				{
					"destination" : [ "obj-281", 0 ],
					"order" : 1,
					"source" : [ "obj-282", 0 ]
				}

			}
, 			{
				"patchline" : 				{
					"destination" : [ "obj-282", 0 ],
					"source" : [ "obj-283", 0 ]
				}

			}
, 			{
				"patchline" : 				{
					"destination" : [ "obj-274", 1 ],
					"source" : [ "obj-284", 0 ]
				}

			}
, 			{
				"patchline" : 				{
					"destination" : [ "obj-274", 0 ],
					"source" : [ "obj-285", 0 ]
				}

			}
, 			{
				"patchline" : 				{
					"destination" : [ "obj-285", 1 ],
					"source" : [ "obj-286", 0 ]
				}

			}
, 			{
				"patchline" : 				{
					"destination" : [ "obj-286", 0 ],
					"source" : [ "obj-287", 0 ]
				}

			}
, 			{
				"patchline" : 				{
					"destination" : [ "obj-287", 0 ],
					"source" : [ "obj-288", 0 ]
				}

			}
, 			{
				"patchline" : 				{
					"destination" : [ "obj-277", 0 ],
					"midpoints" : [ 1616.102128505706787, 877.910994559526443, 1592.80115795135498, 877.910994559526443 ],
					"source" : [ "obj-289", 0 ]
				}

			}
, 			{
				"patchline" : 				{
					"destination" : [ "obj-288", 0 ],
					"order" : 0,
					"source" : [ "obj-290", 0 ]
				}

			}
, 			{
				"patchline" : 				{
					"destination" : [ "obj-289", 0 ],
					"order" : 1,
					"source" : [ "obj-290", 0 ]
				}

			}
, 			{
				"patchline" : 				{
					"destination" : [ "obj-290", 0 ],
					"source" : [ "obj-291", 0 ]
				}

			}
, 			{
				"patchline" : 				{
					"destination" : [ "obj-283", 0 ],
					"midpoints" : [ 1683.917664229869843, 742.794488966464996, 1761.917664229869843, 742.794488966464996 ],
					"order" : 0,
					"source" : [ "obj-292", 0 ]
				}

			}
, 			{
				"patchline" : 				{
					"destination" : [ "obj-291", 0 ],
					"order" : 1,
					"source" : [ "obj-292", 0 ]
				}

			}
, 			{
				"patchline" : 				{
					"color" : [ 0.271527051925659, 0.274813950061798, 0.730729758739471, 1.0 ],
					"destination" : [ "obj-232", 1 ],
					"midpoints" : [ 1660.716692686080933, 679.400702023506256, 1041.710547909140587, 679.400702023506256, 1041.710547909140587, 470.649313235282989, 982.704403132200241, 470.649313235282989 ],
					"source" : [ "obj-293", 0 ]
				}

			}
, 			{
				"patchline" : 				{
					"color" : [ 0.705837249755859, 0.694717586040497, 0.260171592235565, 1.0 ],
					"destination" : [ "obj-292", 0 ],
					"midpoints" : [ 1943.716692686080933, 679.347595494985626, 1683.917664229869843, 679.347595494985626 ],
					"source" : [ "obj-293", 1 ]
				}

			}
, 			{
				"patchline" : 				{
					"destination" : [ "obj-296", 2 ],
					"midpoints" : [ 1681.933363080024719, 524.049318051338332, 1681.716692686080933, 524.049318051338332 ],
					"order" : 0,
					"source" : [ "obj-294", 0 ]
				}

			}
, 			{
				"patchline" : 				{
					"destination" : [ "obj-296", 1 ],
					"midpoints" : [ 1681.933363080024719, 524.04931802153601, 1671.216692686080933, 524.04931802153601 ],
					"order" : 1,
					"source" : [ "obj-294", 0 ]
				}

			}
, 			{
				"patchline" : 				{
					"destination" : [ "obj-294", 0 ],
					"source" : [ "obj-295", 0 ]
				}

			}
, 			{
				"patchline" : 				{
					"destination" : [ "obj-293", 0 ],
					"source" : [ "obj-296", 0 ]
				}

			}
, 			{
				"patchline" : 				{
					"destination" : [ "obj-307", 1 ],
					"midpoints" : [ 578.500005185604095, 797.916676849126816, 558.0, 797.916676849126816 ],
					"source" : [ "obj-298", 0 ]
				}

			}
, 			{
				"patchline" : 				{
					"destination" : [ "obj-307", 0 ],
					"midpoints" : [ 524.500005185604095, 797.916676849126816, 547.5, 797.916676849126816 ],
					"source" : [ "obj-299", 0 ]
				}

			}
, 			{
				"patchline" : 				{
					"destination" : [ "obj-235", 0 ],
					"midpoints" : [ 400.699999988079071, 1159.500014513731003, 276.700006484985352, 1159.500014513731003 ],
					"source" : [ "obj-304", 0 ]
				}

			}
, 			{
				"patchline" : 				{
					"destination" : [ "obj-235", 0 ],
					"source" : [ "obj-305", 0 ]
				}

			}
, 			{
				"patchline" : 				{
					"destination" : [ "obj-304", 0 ],
					"midpoints" : [ 390.700006484985352, 1085.900014787912369, 400.699999988079071, 1085.900014787912369 ],
					"source" : [ "obj-305", 1 ]
				}

			}
, 			{
				"patchline" : 				{
					"destination" : [ "obj-305", 1 ],
					"midpoints" : [ 547.5, 962.233340084552765, 333.700006484985352, 962.233340084552765 ],
					"source" : [ "obj-307", 0 ]
				}

			}
, 			{
				"patchline" : 				{
					"destination" : [ "obj-304", 1 ],
					"source" : [ "obj-36", 0 ]
				}

			}
, 			{
				"patchline" : 				{
					"destination" : [ "obj-15", 2 ],
					"midpoints" : [ 1184.933363080024719, 524.049318051338332, 1184.716692686080933, 524.049318051338332 ],
					"order" : 0,
					"source" : [ "obj-4", 0 ]
				}

			}
, 			{
				"patchline" : 				{
					"destination" : [ "obj-15", 1 ],
					"midpoints" : [ 1184.933363080024719, 524.04931802153601, 1174.216692686080933, 524.04931802153601 ],
					"order" : 1,
					"source" : [ "obj-4", 0 ]
				}

			}
, 			{
				"patchline" : 				{
					"destination" : [ "obj-64", 0 ],
					"source" : [ "obj-47", 0 ]
				}

			}
, 			{
				"patchline" : 				{
					"destination" : [ "obj-305", 0 ],
					"midpoints" : [ 245.333336114883423, 957.000014269351936, 276.700006484985352, 957.000014269351936 ],
					"source" : [ "obj-50", 0 ]
				}

			}
, 			{
				"patchline" : 				{
					"destination" : [ "obj-72", 0 ],
					"source" : [ "obj-54", 0 ]
				}

			}
, 			{
				"patchline" : 				{
					"destination" : [ "obj-56", 0 ],
					"source" : [ "obj-55", 0 ]
				}

			}
, 			{
				"patchline" : 				{
					"destination" : [ "obj-36", 0 ],
					"source" : [ "obj-56", 0 ]
				}

			}
, 			{
				"patchline" : 				{
					"destination" : [ "obj-4", 0 ],
					"source" : [ "obj-6", 0 ]
				}

			}
, 			{
				"patchline" : 				{
					"destination" : [ "obj-305", 2 ],
					"midpoints" : [ 295.699999988079071, 1011.96668016910553, 390.700006484985352, 1011.96668016910553 ],
					"source" : [ "obj-61", 0 ]
				}

			}
, 			{
				"patchline" : 				{
					"destination" : [ "obj-230", 1 ],
					"source" : [ "obj-62", 1 ]
				}

			}
, 			{
				"patchline" : 				{
					"destination" : [ "obj-67", 1 ],
					"source" : [ "obj-62", 0 ]
				}

			}
, 			{
				"patchline" : 				{
					"destination" : [ "obj-225", 0 ],
					"source" : [ "obj-63", 0 ]
				}

			}
, 			{
				"patchline" : 				{
					"destination" : [ "obj-50", 1 ],
					"source" : [ "obj-64", 0 ]
				}

			}
, 			{
				"patchline" : 				{
					"color" : [ 0.150711357593536, 0.150711357593536, 0.150711357593536, 1.0 ],
					"destination" : [ "obj-299", 0 ],
					"midpoints" : [ 387.883334875106812, 583.766335892677375, 524.500005185604095, 583.766335892677375 ],
					"source" : [ "obj-67", 0 ]
				}

			}
, 			{
				"patchline" : 				{
					"destination" : [ "obj-72", 2 ],
					"midpoints" : [ 419.600005269050598, 412.60000457763681, 419.383334875106812, 412.60000457763681 ],
					"order" : 0,
					"source" : [ "obj-69", 0 ]
				}

			}
, 			{
				"patchline" : 				{
					"destination" : [ "obj-72", 1 ],
					"midpoints" : [ 419.600005269050598, 412.600004547834487, 408.883334875106812, 412.600004547834487 ],
					"order" : 1,
					"source" : [ "obj-69", 0 ]
				}

			}
, 			{
				"patchline" : 				{
					"destination" : [ "obj-70", 0 ],
					"source" : [ "obj-7", 0 ]
				}

			}
, 			{
				"patchline" : 				{
					"destination" : [ "obj-69", 0 ],
					"source" : [ "obj-71", 0 ]
				}

			}
, 			{
				"patchline" : 				{
					"destination" : [ "obj-62", 0 ],
					"source" : [ "obj-72", 0 ]
				}

			}
, 			{
				"patchline" : 				{
					"destination" : [ "obj-238", 0 ],
					"source" : [ "obj-89", 0 ]
				}

			}
, 			{
				"patchline" : 				{
					"destination" : [ "obj-239", 0 ],
					"source" : [ "obj-9", 0 ]
				}

			}
 ],
		"styles" : [ 			{
				"name" : "AudioStatus_Menu",
				"default" : 				{
					"bgfillcolor" : 					{
						"type" : "color",
						"color" : [ 0.294118, 0.313726, 0.337255, 1 ],
						"color1" : [ 0.454902, 0.462745, 0.482353, 0.0 ],
						"color2" : [ 0.290196, 0.309804, 0.301961, 1.0 ],
						"angle" : 270.0,
						"proportion" : 0.39,
						"autogradient" : 0
					}

				}
,
				"parentstyle" : "",
				"multi" : 0
			}
, 			{
				"name" : "jx.test1",
				"default" : 				{
					"textcolor" : [ 0.32549, 0.345098, 0.372549, 1.0 ],
					"fontsize" : [ 9.0 ],
					"fontname" : [ "Verdana" ],
					"fontface" : [ 1 ],
					"bgfillcolor" : 					{
						"type" : "gradient",
						"color1" : [ 0.376471, 0.384314, 0.4, 1.0 ],
						"color2" : [ 0.290196, 0.309804, 0.301961, 1.0 ],
						"color" : [ 0.290196, 0.309804, 0.301961, 1.0 ],
						"angle" : 270.0,
						"proportion" : 0.39
					}

				}
,
				"parentstyle" : "",
				"multi" : 0
			}
 ],
		"editing_bgcolor" : [ 0.9, 0.9, 0.9, 1.0 ]
	}

}
