{
	"patcher" : 	{
		"fileversion" : 1,
		"appversion" : 		{
			"major" : 8,
			"minor" : 5,
			"revision" : 5,
			"architecture" : "x64",
			"modernui" : 1
		}
,
		"classnamespace" : "dsp.gen",
		"rect" : [ 194.0, 129.0, 961.0, 478.0 ],
		"bglocked" : 0,
		"openinpresentation" : 0,
		"default_fontsize" : 12.0,
		"default_fontface" : 0,
		"default_fontname" : "Arial",
		"gridonopen" : 1,
		"gridsize" : [ 15.0, 15.0 ],
		"gridsnaponopen" : 1,
		"objectsnaponopen" : 1,
		"statusbarvisible" : 2,
		"toolbarvisible" : 1,
		"lefttoolbarpinned" : 0,
		"toptoolbarpinned" : 0,
		"righttoolbarpinned" : 0,
		"bottomtoolbarpinned" : 0,
		"toolbars_unpinned_last_save" : 0,
		"tallnewobj" : 0,
		"boxanimatetime" : 200,
		"enablehscroll" : 1,
		"enablevscroll" : 1,
		"devicewidth" : 0.0,
		"description" : "",
		"digest" : "",
		"tags" : "",
		"style" : "",
		"subpatcher_template" : "",
		"assistshowspatchername" : 0,
		"boxes" : [ 			{
				"box" : 				{
					"id" : "obj-30",
					"linecount" : 2,
					"maxclass" : "comment",
					"numinlets" : 1,
					"numoutlets" : 0,
					"patching_rect" : [ 459.0, 15.0, 70.5, 34.0 ],
					"text" : "cutoff frequency"
				}

			}
, 			{
				"box" : 				{
					"id" : "obj-27",
					"linecount" : 2,
					"maxclass" : "comment",
					"numinlets" : 1,
					"numoutlets" : 0,
					"patching_rect" : [ 583.0, 15.0, 95.0, 34.0 ],
					"text" : "resonator effect (oscillator in)"
				}

			}
, 			{
				"box" : 				{
					"id" : "obj-26",
					"linecount" : 2,
					"maxclass" : "comment",
					"numinlets" : 1,
					"numoutlets" : 0,
					"patching_rect" : [ 760.0, 16.0, 95.0, 34.0 ],
					"text" : "resonator effect (constant in)"
				}

			}
, 			{
				"box" : 				{
					"id" : "obj-24",
					"maxclass" : "newobj",
					"numinlets" : 0,
					"numoutlets" : 1,
					"outlettype" : [ "" ],
					"patching_rect" : [ 721.0, 15.0, 28.0, 22.0 ],
					"text" : "in 5"
				}

			}
, 			{
				"box" : 				{
					"id" : "obj-23",
					"maxclass" : "newobj",
					"numinlets" : 1,
					"numoutlets" : 1,
					"outlettype" : [ "" ],
					"patching_rect" : [ 765.0, 224.0, 23.0, 22.0 ],
					"text" : "* 2"
				}

			}
, 			{
				"box" : 				{
					"id" : "obj-22",
					"maxclass" : "newobj",
					"numinlets" : 2,
					"numoutlets" : 1,
					"outlettype" : [ "" ],
					"patching_rect" : [ 710.0, 275.0, 29.5, 22.0 ],
					"text" : "+"
				}

			}
, 			{
				"box" : 				{
					"id" : "obj-21",
					"maxclass" : "newobj",
					"numinlets" : 2,
					"numoutlets" : 1,
					"outlettype" : [ "" ],
					"patching_rect" : [ 710.0, 224.0, 29.5, 22.0 ],
					"text" : "*"
				}

			}
, 			{
				"box" : 				{
					"id" : "obj-11",
					"maxclass" : "newobj",
					"numinlets" : 0,
					"numoutlets" : 1,
					"outlettype" : [ "" ],
					"patching_rect" : [ 546.0, 15.0, 28.0, 22.0 ],
					"text" : "in 4"
				}

			}
, 			{
				"box" : 				{
					"id" : "obj-14",
					"maxclass" : "newobj",
					"numinlets" : 0,
					"numoutlets" : 1,
					"outlettype" : [ "" ],
					"patching_rect" : [ 429.0, 15.0, 28.0, 22.0 ],
					"text" : "in 3"
				}

			}
, 			{
				"box" : 				{
					"id" : "obj-13",
					"maxclass" : "newobj",
					"numinlets" : 2,
					"numoutlets" : 1,
					"outlettype" : [ "" ],
					"patching_rect" : [ 720.0, 161.0, 87.0, 22.0 ],
					"text" : "scale 0 1 0 0.2"
				}

			}
, 			{
				"box" : 				{
					"id" : "obj-12",
					"maxclass" : "newobj",
					"numinlets" : 1,
					"numoutlets" : 1,
					"outlettype" : [ "" ],
					"patching_rect" : [ 50.0, 343.0, 33.0, 22.0 ],
					"text" : "* 0.7"
				}

			}
, 			{
				"box" : 				{
					"id" : "obj-9",
					"maxclass" : "newobj",
					"numinlets" : 3,
					"numoutlets" : 1,
					"outlettype" : [ "" ],
					"patching_rect" : [ 50.0, 316.0, 40.0, 22.0 ],
					"text" : "mix"
				}

			}
, 			{
				"box" : 				{
					"id" : "obj-3",
					"maxclass" : "newobj",
					"numinlets" : 2,
					"numoutlets" : 1,
					"outlettype" : [ "" ],
					"patching_rect" : [ 117.0, 142.0, 110.0, 22.0 ],
					"text" : "scale 0 1 850 1000"
				}

			}
, 			{
				"box" : 				{
					"id" : "obj-2",
					"maxclass" : "newobj",
					"numinlets" : 1,
					"numoutlets" : 1,
					"outlettype" : [ "" ],
					"patching_rect" : [ 50.0, 369.0, 59.0, 22.0 ],
					"text" : "wrap -1 1"
				}

			}
, 			{
				"box" : 				{
					"id" : "obj-10",
					"maxclass" : "comment",
					"numinlets" : 1,
					"numoutlets" : 0,
					"patching_rect" : [ 243.0, 15.0, 150.0, 20.0 ],
					"text" : "resonator intensity"
				}

			}
, 			{
				"box" : 				{
					"id" : "obj-8",
					"maxclass" : "newobj",
					"numinlets" : 0,
					"numoutlets" : 1,
					"outlettype" : [ "" ],
					"patching_rect" : [ 206.0, 15.0, 28.0, 22.0 ],
					"text" : "in 2"
				}

			}
, 			{
				"box" : 				{
					"id" : "obj-6",
					"maxclass" : "comment",
					"numinlets" : 1,
					"numoutlets" : 0,
					"patching_rect" : [ 83.0, 15.0, 45.0, 20.0 ],
					"text" : "audio"
				}

			}
, 			{
				"box" : 				{
					"id" : "obj-220",
					"maxclass" : "newobj",
					"numinlets" : 2,
					"numoutlets" : 1,
					"outlettype" : [ "" ],
					"patching_rect" : [ 50.0, 132.103610694408417, 47.0, 22.0 ],
					"text" : "mix 0.8"
				}

			}
, 			{
				"box" : 				{
					"id" : "obj-68",
					"maxclass" : "newobj",
					"numinlets" : 2,
					"numoutlets" : 1,
					"outlettype" : [ "" ],
					"patching_rect" : [ 50.0, 287.799405157566071, 29.5, 22.0 ],
					"text" : "*"
				}

			}
, 			{
				"box" : 				{
					"id" : "obj-69",
					"maxclass" : "newobj",
					"numinlets" : 1,
					"numoutlets" : 1,
					"outlettype" : [ "" ],
					"patching_rect" : [ 50.0, 249.571722209453583, 44.0, 22.0 ],
					"text" : "history"
				}

			}
, 			{
				"box" : 				{
					"id" : "obj-19",
					"maxclass" : "newobj",
					"numinlets" : 2,
					"numoutlets" : 1,
					"outlettype" : [ "" ],
					"patcher" : 					{
						"fileversion" : 1,
						"appversion" : 						{
							"major" : 8,
							"minor" : 5,
							"revision" : 5,
							"architecture" : "x64",
							"modernui" : 1
						}
,
						"classnamespace" : "dsp.gen",
						"rect" : [ 669.0, 84.0, 570.0, 553.0 ],
						"bglocked" : 0,
						"openinpresentation" : 0,
						"default_fontsize" : 12.0,
						"default_fontface" : 0,
						"default_fontname" : "Arial",
						"gridonopen" : 1,
						"gridsize" : [ 15.0, 15.0 ],
						"gridsnaponopen" : 1,
						"objectsnaponopen" : 1,
						"statusbarvisible" : 2,
						"toolbarvisible" : 1,
						"lefttoolbarpinned" : 0,
						"toptoolbarpinned" : 0,
						"righttoolbarpinned" : 0,
						"bottomtoolbarpinned" : 0,
						"toolbars_unpinned_last_save" : 0,
						"tallnewobj" : 0,
						"boxanimatetime" : 200,
						"enablehscroll" : 1,
						"enablevscroll" : 1,
						"devicewidth" : 0.0,
						"description" : "",
						"digest" : "",
						"tags" : "",
						"style" : "",
						"subpatcher_template" : "",
						"assistshowspatchername" : 0,
						"boxes" : [ 							{
								"box" : 								{
									"id" : "obj-5",
									"maxclass" : "newobj",
									"numinlets" : 0,
									"numoutlets" : 1,
									"outlettype" : [ "" ],
									"patching_rect" : [ 295.3846435546875, 103.076932907104492, 28.0, 22.0 ],
									"text" : "in 2"
								}

							}
, 							{
								"box" : 								{
									"id" : "obj-33",
									"maxclass" : "comment",
									"numinlets" : 1,
									"numoutlets" : 0,
									"patching_rect" : [ 29.366728901863098, 68.234476327896118, 190.0, 20.0 ],
									"text" : "Jake Pelrah and Darcy Milligan"
								}

							}
, 							{
								"box" : 								{
									"fontsize" : 18.0,
									"id" : "obj-99",
									"maxclass" : "comment",
									"numinlets" : 1,
									"numoutlets" : 0,
									"patching_rect" : [ 26.175239562988281, 39.234476327896118, 133.893617630004883, 27.0 ],
									"text" : "High-pass filter"
								}

							}
, 							{
								"box" : 								{
									"id" : "obj-97",
									"maxclass" : "newobj",
									"numinlets" : 1,
									"numoutlets" : 1,
									"outlettype" : [ "" ],
									"patching_rect" : [ 47.042178750038147, 336.255316615104675, 51.0, 22.0 ],
									"text" : "clip -1 1"
								}

							}
, 							{
								"box" : 								{
									"color" : [ 0.999996, 0.999939, 0.041033, 1.0 ],
									"id" : "obj-21",
									"maxclass" : "newobj",
									"numinlets" : 1,
									"numoutlets" : 0,
									"patching_rect" : [ 125.068857192993164, 413.457615613937378, 35.0, 22.0 ],
									"text" : "out 1"
								}

							}
, 							{
								"box" : 								{
									"color" : [ 0.999996, 0.999939, 0.041033, 1.0 ],
									"id" : "obj-22",
									"maxclass" : "newobj",
									"numinlets" : 1,
									"numoutlets" : 0,
									"patching_rect" : [ 47.042178750038147, 413.457615613937378, 35.0, 22.0 ],
									"text" : "out 1"
								}

							}
, 							{
								"box" : 								{
									"id" : "obj-1",
									"maxclass" : "newobj",
									"numinlets" : 2,
									"numoutlets" : 1,
									"outlettype" : [ "" ],
									"patcher" : 									{
										"fileversion" : 1,
										"appversion" : 										{
											"major" : 8,
											"minor" : 5,
											"revision" : 5,
											"architecture" : "x64",
											"modernui" : 1
										}
,
										"classnamespace" : "dsp.gen",
										"rect" : [ 41.0, 84.0, 581.0, 553.0 ],
										"bglocked" : 0,
										"openinpresentation" : 0,
										"default_fontsize" : 12.0,
										"default_fontface" : 0,
										"default_fontname" : "Arial",
										"gridonopen" : 1,
										"gridsize" : [ 15.0, 15.0 ],
										"gridsnaponopen" : 1,
										"objectsnaponopen" : 1,
										"statusbarvisible" : 2,
										"toolbarvisible" : 1,
										"lefttoolbarpinned" : 0,
										"toptoolbarpinned" : 0,
										"righttoolbarpinned" : 0,
										"bottomtoolbarpinned" : 0,
										"toolbars_unpinned_last_save" : 0,
										"tallnewobj" : 0,
										"boxanimatetime" : 200,
										"enablehscroll" : 1,
										"enablevscroll" : 1,
										"devicewidth" : 0.0,
										"description" : "",
										"digest" : "",
										"tags" : "",
										"style" : "",
										"subpatcher_template" : "",
										"assistshowspatchername" : 0,
										"boxes" : [ 											{
												"box" : 												{
													"bgcolor" : [ 0.0, 0.0, 0.0, 1.0 ],
													"fontface" : 1,
													"fontsize" : 14.0,
													"id" : "obj-44",
													"maxclass" : "comment",
													"numinlets" : 1,
													"numoutlets" : 0,
													"patching_rect" : [ 44.0, 13.0, 236.0, 23.0 ],
													"text" : "Second-Order Highpass Filter",
													"textcolor" : [ 1.0, 1.0, 1.0, 1.0 ]
												}

											}
, 											{
												"box" : 												{
													"id" : "obj-41",
													"maxclass" : "newobj",
													"numinlets" : 2,
													"numoutlets" : 1,
													"outlettype" : [ "" ],
													"patching_rect" : [ 55.750000596046448, 317.400000512599945, 30.0, 22.0 ],
													"style" : "default",
													"text" : "+"
												}

											}
, 											{
												"box" : 												{
													"color" : [ 0.349019607843137, 0.349019607843137, 0.349019607843137, 1.0 ],
													"id" : "obj-40",
													"maxclass" : "newobj",
													"numinlets" : 2,
													"numoutlets" : 1,
													"outlettype" : [ "" ],
													"patching_rect" : [ 100.0, 424.800000011920929, 32.5, 22.0 ],
													"text" : "*"
												}

											}
, 											{
												"box" : 												{
													"id" : "obj-39",
													"maxclass" : "newobj",
													"numinlets" : 2,
													"numoutlets" : 1,
													"outlettype" : [ "" ],
													"patching_rect" : [ 136.950000166893005, 261.200000822544098, 30.0, 22.0 ],
													"style" : "default",
													"text" : "*"
												}

											}
, 											{
												"box" : 												{
													"color" : [ 0.349019607843137, 0.349019607843137, 0.349019607843137, 1.0 ],
													"id" : "obj-36",
													"maxclass" : "newobj",
													"numinlets" : 2,
													"numoutlets" : 1,
													"outlettype" : [ "" ],
													"patching_rect" : [ 210.649999618530273, 424.599999964237213, 29.5, 22.0 ],
													"text" : "*"
												}

											}
, 											{
												"box" : 												{
													"color" : [ 0.349019607843137, 0.349019607843137, 0.349019607843137, 1.0 ],
													"id" : "obj-34",
													"maxclass" : "newobj",
													"numinlets" : 1,
													"numoutlets" : 1,
													"outlettype" : [ "" ],
													"patching_rect" : [ 112.5, 396.800000190734863, 27.0, 22.0 ],
													"text" : "* -1"
												}

											}
, 											{
												"box" : 												{
													"color" : [ 1.0, 0.4, 1.0, 1.0 ],
													"id" : "obj-29",
													"maxclass" : "newobj",
													"numinlets" : 0,
													"numoutlets" : 1,
													"outlettype" : [ "" ],
													"patching_rect" : [ 221.149999618530273, 369.800000190734863, 64.0, 22.0 ],
													"text" : "receive b2"
												}

											}
, 											{
												"box" : 												{
													"color" : [ 1.0, 0.4, 1.0, 1.0 ],
													"id" : "obj-27",
													"maxclass" : "newobj",
													"numinlets" : 0,
													"numoutlets" : 1,
													"outlettype" : [ "" ],
													"patching_rect" : [ 112.5, 369.800000190734863, 64.0, 22.0 ],
													"text" : "receive a2"
												}

											}
, 											{
												"box" : 												{
													"color" : [ 1.0, 0.4, 1.0, 1.0 ],
													"id" : "obj-25",
													"maxclass" : "newobj",
													"numinlets" : 1,
													"numoutlets" : 0,
													"patching_rect" : [ 804.399994611740112, 440.599999964237213, 51.0, 22.0 ],
													"text" : "send a2"
												}

											}
, 											{
												"box" : 												{
													"color" : [ 1.0, 0.4, 1.0, 1.0 ],
													"id" : "obj-24",
													"maxclass" : "newobj",
													"numinlets" : 1,
													"numoutlets" : 0,
													"patching_rect" : [ 715.066662549972534, 440.599999964237213, 51.0, 22.0 ],
													"text" : "send a1"
												}

											}
, 											{
												"box" : 												{
													"color" : [ 1.0, 0.4, 1.0, 1.0 ],
													"id" : "obj-21",
													"maxclass" : "newobj",
													"numinlets" : 1,
													"numoutlets" : 0,
													"patching_rect" : [ 593.733330488204956, 440.599999964237213, 51.0, 22.0 ],
													"text" : "send b1"
												}

											}
, 											{
												"box" : 												{
													"color" : [ 1.0, 0.4, 1.0, 1.0 ],
													"id" : "obj-20",
													"maxclass" : "newobj",
													"numinlets" : 1,
													"numoutlets" : 0,
													"patching_rect" : [ 527.399998426437378, 440.599999964237213, 51.0, 22.0 ],
													"text" : "send b2"
												}

											}
, 											{
												"box" : 												{
													"color" : [ 1.0, 0.4, 1.0, 1.0 ],
													"id" : "obj-19",
													"maxclass" : "newobj",
													"numinlets" : 1,
													"numoutlets" : 0,
													"patching_rect" : [ 472.399998426437378, 440.599999964237213, 51.0, 22.0 ],
													"text" : "send b0"
												}

											}
, 											{
												"box" : 												{
													"code" : "\r\nK = tan (in1 * pi / samplerate);\r\nQ = 2; // try changing the Q value \r\n\r\nsharedDenom = (pow(K,2) * Q + K + Q);\r\n\r\nout1 = Q / sharedDenom; // b0, b1\r\nout2 = -2 * Q / sharedDenom; // b2\r\nout3 = 2 * Q * (pow(K,2) - 1) / sharedDenom; // a1\r\nout4 = (pow(K,2) * Q - K + Q) / sharedDenom; // a2",
													"fontface" : 0,
													"fontname" : "<Monospaced>",
													"fontsize" : 10.0,
													"id" : "obj-10",
													"maxclass" : "codebox",
													"numinlets" : 1,
													"numoutlets" : 4,
													"outlettype" : [ "", "", "", "" ],
													"patching_rect" : [ 472.399998426437378, 170.149999976158142, 382.999996185302734, 221.650000214576721 ]
												}

											}
, 											{
												"box" : 												{
													"color" : [ 0.352941176470588, 0.470588235294118, 0.976470588235294, 1.0 ],
													"id" : "obj-5",
													"maxclass" : "newobj",
													"numinlets" : 2,
													"numoutlets" : 1,
													"outlettype" : [ "" ],
													"patching_rect" : [ 183.5, 322.400000751018524, 121.0, 22.0 ],
													"text" : "delay 1 @feedback 1"
												}

											}
, 											{
												"box" : 												{
													"id" : "obj-4",
													"maxclass" : "newobj",
													"numinlets" : 1,
													"numoutlets" : 1,
													"outlettype" : [ "" ],
													"patching_rect" : [ 108.5, 218.000000655651093, 27.0, 22.0 ],
													"style" : "default",
													"text" : "* -1"
												}

											}
, 											{
												"box" : 												{
													"id" : "obj-42",
													"linecount" : 4,
													"maxclass" : "comment",
													"numinlets" : 1,
													"numoutlets" : 0,
													"patching_rect" : [ 44.0, 32.0, 592.733330488204956, 62.0 ],
													"text" : "Chapter 2.2.2 Canonical Filters\nSource: Udo Zolzer. 2011 DAFX: Digital Audio Effects (2nd. ed.). Wiley Publishing.\n\nhttps://learning.oreilly.com/library/view/dafx-digital-audio/9780470665992/c02_level1_2.xhtml#c02_level1_2"
												}

											}
, 											{
												"box" : 												{
													"color" : [ 0.349019607843137, 0.349019607843137, 0.349019607843137, 1.0 ],
													"id" : "obj-31",
													"maxclass" : "newobj",
													"numinlets" : 2,
													"numoutlets" : 1,
													"outlettype" : [ "" ],
													"patching_rect" : [ 311.099999189376831, 473.199999868869781, 29.5, 22.0 ],
													"text" : "+"
												}

											}
, 											{
												"box" : 												{
													"color" : [ 1.0, 0.4, 1.0, 1.0 ],
													"id" : "obj-30",
													"maxclass" : "newobj",
													"numinlets" : 0,
													"numoutlets" : 1,
													"outlettype" : [ "" ],
													"patching_rect" : [ 250.950000166893005, 181.600001454353333, 64.0, 22.0 ],
													"text" : "receive b1"
												}

											}
, 											{
												"box" : 												{
													"id" : "obj-28",
													"maxclass" : "newobj",
													"numinlets" : 2,
													"numoutlets" : 1,
													"outlettype" : [ "" ],
													"patching_rect" : [ 229.25, 260.400000810623169, 30.0, 22.0 ],
													"style" : "default",
													"text" : "*"
												}

											}
, 											{
												"box" : 												{
													"color" : [ 1.0, 0.4, 1.0, 1.0 ],
													"id" : "obj-22",
													"maxclass" : "newobj",
													"numinlets" : 0,
													"numoutlets" : 1,
													"outlettype" : [ "" ],
													"patching_rect" : [ 108.5, 181.600001454353333, 64.0, 22.0 ],
													"text" : "receive a1"
												}

											}
, 											{
												"box" : 												{
													"id" : "obj-17",
													"maxclass" : "newobj",
													"numinlets" : 1,
													"numoutlets" : 0,
													"patching_rect" : [ 630.399998426437378, 285.400000989437103, 51.0, 22.0 ],
													"text" : "send a1"
												}

											}
, 											{
												"box" : 												{
													"id" : "obj-16",
													"maxclass" : "newobj",
													"numinlets" : 1,
													"numoutlets" : 0,
													"patching_rect" : [ 567.399998426437378, 285.400000989437103, 51.0, 22.0 ],
													"text" : "send b1"
												}

											}
, 											{
												"box" : 												{
													"color" : [ 1.0, 0.4, 1.0, 1.0 ],
													"id" : "obj-15",
													"maxclass" : "newobj",
													"numinlets" : 0,
													"numoutlets" : 1,
													"outlettype" : [ "" ],
													"patching_rect" : [ 341.099999189376831, 181.600001454353333, 64.0, 22.0 ],
													"text" : "receive b0"
												}

											}
, 											{
												"box" : 												{
													"id" : "obj-13",
													"maxclass" : "newobj",
													"numinlets" : 2,
													"numoutlets" : 1,
													"outlettype" : [ "" ],
													"patching_rect" : [ 321.599999189376831, 262.400000989437103, 39.0, 22.0 ],
													"style" : "default",
													"text" : "*"
												}

											}
, 											{
												"box" : 												{
													"color" : [ 1.0, 1.0, 0.0, 1.0 ],
													"id" : "obj-12",
													"maxclass" : "newobj",
													"numinlets" : 0,
													"numoutlets" : 1,
													"outlettype" : [ "" ],
													"patching_rect" : [ 55.750000596046448, 104.400000989437103, 28.0, 22.0 ],
													"text" : "in 1"
												}

											}
, 											{
												"box" : 												{
													"color" : [ 1.0, 1.0, 0.0, 1.0 ],
													"id" : "obj-9",
													"maxclass" : "newobj",
													"numinlets" : 0,
													"numoutlets" : 1,
													"outlettype" : [ "" ],
													"patching_rect" : [ 472.399998426437378, 104.400000989437103, 28.0, 22.0 ],
													"text" : "in 2"
												}

											}
, 											{
												"box" : 												{
													"color" : [ 0.352941176470588, 0.470588235294118, 0.976470588235294, 1.0 ],
													"id" : "obj-43",
													"maxclass" : "newobj",
													"numinlets" : 2,
													"numoutlets" : 1,
													"outlettype" : [ "" ],
													"patching_rect" : [ 183.5, 148.399999618530273, 121.0, 22.0 ],
													"text" : "delay 1 @feedback 1"
												}

											}
, 											{
												"box" : 												{
													"color" : [ 1.0, 1.0, 0.0, 1.0 ],
													"id" : "obj-239",
													"maxclass" : "newobj",
													"numinlets" : 1,
													"numoutlets" : 0,
													"patching_rect" : [ 311.099999189376831, 509.599999964237213, 35.0, 22.0 ],
													"text" : "out 1"
												}

											}
 ],
										"lines" : [ 											{
												"patchline" : 												{
													"color" : [ 0.0, 0.0, 0.0, 1.0 ],
													"destination" : [ "obj-19", 0 ],
													"order" : 1,
													"source" : [ "obj-10", 0 ]
												}

											}
, 											{
												"patchline" : 												{
													"color" : [ 0.0, 0.0, 0.0, 1.0 ],
													"destination" : [ "obj-20", 0 ],
													"midpoints" : [ 481.899998426437378, 407.400000691413879, 536.899998426437378, 407.400000691413879 ],
													"order" : 0,
													"source" : [ "obj-10", 0 ]
												}

											}
, 											{
												"patchline" : 												{
													"color" : [ 0.0, 0.0, 0.0, 1.0 ],
													"destination" : [ "obj-21", 0 ],
													"source" : [ "obj-10", 1 ]
												}

											}
, 											{
												"patchline" : 												{
													"color" : [ 0.0, 0.0, 0.0, 1.0 ],
													"destination" : [ "obj-24", 0 ],
													"source" : [ "obj-10", 2 ]
												}

											}
, 											{
												"patchline" : 												{
													"color" : [ 0.0, 0.0, 0.0, 1.0 ],
													"destination" : [ "obj-25", 0 ],
													"midpoints" : [ 845.899994611740112, 405.300000429153442, 813.899994611740112, 405.300000429153442 ],
													"source" : [ "obj-10", 3 ]
												}

											}
, 											{
												"patchline" : 												{
													"color" : [ 0.0, 0.0, 0.0, 1.0 ],
													"destination" : [ "obj-41", 0 ],
													"source" : [ "obj-12", 0 ]
												}

											}
, 											{
												"patchline" : 												{
													"color" : [ 0.0, 0.0, 0.0, 1.0 ],
													"destination" : [ "obj-31", 1 ],
													"source" : [ "obj-13", 0 ]
												}

											}
, 											{
												"patchline" : 												{
													"color" : [ 0.0, 0.0, 0.0, 1.0 ],
													"destination" : [ "obj-13", 1 ],
													"source" : [ "obj-15", 0 ]
												}

											}
, 											{
												"patchline" : 												{
													"color" : [ 0.0, 0.0, 0.0, 1.0 ],
													"destination" : [ "obj-4", 0 ],
													"source" : [ "obj-22", 0 ]
												}

											}
, 											{
												"patchline" : 												{
													"color" : [ 0.0, 0.0, 0.0, 1.0 ],
													"destination" : [ "obj-34", 0 ],
													"source" : [ "obj-27", 0 ]
												}

											}
, 											{
												"patchline" : 												{
													"color" : [ 0.0, 0.0, 0.0, 1.0 ],
													"destination" : [ "obj-31", 0 ],
													"midpoints" : [ 238.75, 310.800000846385956, 320.599999189376831, 310.800000846385956 ],
													"source" : [ "obj-28", 0 ]
												}

											}
, 											{
												"patchline" : 												{
													"color" : [ 0.0, 0.0, 0.0, 1.0 ],
													"destination" : [ "obj-36", 1 ],
													"source" : [ "obj-29", 0 ]
												}

											}
, 											{
												"patchline" : 												{
													"color" : [ 0.0, 0.0, 0.0, 1.0 ],
													"destination" : [ "obj-28", 1 ],
													"midpoints" : [ 260.450000166893005, 246.500000685453415, 249.75, 246.500000685453415 ],
													"source" : [ "obj-30", 0 ]
												}

											}
, 											{
												"patchline" : 												{
													"color" : [ 0.0, 0.0, 0.0, 1.0 ],
													"destination" : [ "obj-239", 0 ],
													"source" : [ "obj-31", 0 ]
												}

											}
, 											{
												"patchline" : 												{
													"destination" : [ "obj-40", 1 ],
													"source" : [ "obj-34", 0 ]
												}

											}
, 											{
												"patchline" : 												{
													"color" : [ 0.0, 0.0, 0.0, 1.0 ],
													"destination" : [ "obj-31", 0 ],
													"midpoints" : [ 220.149999618530273, 456.399999916553497, 320.599999189376831, 456.399999916553497 ],
													"source" : [ "obj-36", 0 ]
												}

											}
, 											{
												"patchline" : 												{
													"color" : [ 0.0, 0.0, 0.0, 1.0 ],
													"destination" : [ "obj-41", 0 ],
													"midpoints" : [ 146.450000166893005, 293.000000596046448, 65.250000596046448, 293.000000596046448 ],
													"source" : [ "obj-39", 0 ]
												}

											}
, 											{
												"patchline" : 												{
													"destination" : [ "obj-39", 0 ],
													"source" : [ "obj-4", 0 ]
												}

											}
, 											{
												"patchline" : 												{
													"color" : [ 0.0, 0.0, 0.0, 1.0 ],
													"destination" : [ "obj-41", 1 ],
													"midpoints" : [ 109.5, 456.800000011920929, 92.625000298023224, 456.800000011920929, 92.625000298023224, 306.400000512599945, 76.250000596046448, 306.400000512599945 ],
													"source" : [ "obj-40", 0 ]
												}

											}
, 											{
												"patchline" : 												{
													"color" : [ 0.0, 0.0, 0.0, 1.0 ],
													"destination" : [ "obj-13", 0 ],
													"midpoints" : [ 65.250000596046448, 349.400000512599945, 39.174999892711639, 349.400000512599945, 39.174999892711639, 139.400000989437103, 331.099999189376831, 139.400000989437103 ],
													"order" : 0,
													"source" : [ "obj-41", 0 ]
												}

											}
, 											{
												"patchline" : 												{
													"color" : [ 0.0, 0.0, 0.0, 1.0 ],
													"destination" : [ "obj-43", 0 ],
													"midpoints" : [ 65.250000596046448, 348.400000512599945, 104.52500057220459, 348.400000512599945, 104.52500057220459, 132.400001049041748, 193.0, 132.400001049041748 ],
													"order" : 1,
													"source" : [ "obj-41", 0 ]
												}

											}
, 											{
												"patchline" : 												{
													"color" : [ 0.0, 0.0, 0.0, 1.0 ],
													"destination" : [ "obj-28", 0 ],
													"midpoints" : [ 193.0, 249.800001442432404, 238.75, 249.800001442432404 ],
													"order" : 0,
													"source" : [ "obj-43", 0 ]
												}

											}
, 											{
												"patchline" : 												{
													"color" : [ 0.0, 0.0, 0.0, 1.0 ],
													"destination" : [ "obj-39", 1 ],
													"midpoints" : [ 193.0, 247.200001358985901, 157.450000166893005, 247.200001358985901 ],
													"order" : 2,
													"source" : [ "obj-43", 0 ]
												}

											}
, 											{
												"patchline" : 												{
													"color" : [ 0.0, 0.0, 0.0, 1.0 ],
													"destination" : [ "obj-5", 0 ],
													"order" : 1,
													"source" : [ "obj-43", 0 ]
												}

											}
, 											{
												"patchline" : 												{
													"color" : [ 0.0, 0.0, 0.0, 1.0 ],
													"destination" : [ "obj-36", 0 ],
													"midpoints" : [ 193.0, 414.000000357627869, 220.149999618530273, 414.000000357627869 ],
													"order" : 0,
													"source" : [ "obj-5", 0 ]
												}

											}
, 											{
												"patchline" : 												{
													"color" : [ 0.0, 0.0, 0.0, 1.0 ],
													"destination" : [ "obj-40", 0 ],
													"midpoints" : [ 193.0, 359.500000417232513, 109.5, 359.500000417232513 ],
													"order" : 1,
													"source" : [ "obj-5", 0 ]
												}

											}
, 											{
												"patchline" : 												{
													"destination" : [ "obj-10", 0 ],
													"source" : [ "obj-9", 0 ]
												}

											}
 ],
										"styles" : [ 											{
												"name" : "AudioStatus_Menu",
												"default" : 												{
													"bgfillcolor" : 													{
														"angle" : 270.0,
														"autogradient" : 0,
														"color" : [ 0.294118, 0.313726, 0.337255, 1 ],
														"color1" : [ 0.454902, 0.462745, 0.482353, 0.0 ],
														"color2" : [ 0.290196, 0.309804, 0.301961, 1.0 ],
														"proportion" : 0.39,
														"type" : "color"
													}

												}
,
												"parentstyle" : "",
												"multi" : 0
											}
, 											{
												"name" : "jx.test1",
												"default" : 												{
													"bgfillcolor" : 													{
														"angle" : 270.0,
														"color" : [ 0.290196, 0.309804, 0.301961, 1.0 ],
														"color1" : [ 0.376471, 0.384314, 0.4, 1.0 ],
														"color2" : [ 0.290196, 0.309804, 0.301961, 1.0 ],
														"proportion" : 0.39,
														"type" : "gradient"
													}
,
													"fontface" : [ 1 ],
													"fontname" : [ "Verdana" ],
													"fontsize" : [ 9.0 ],
													"textcolor" : [ 0.32549, 0.345098, 0.372549, 1.0 ]
												}
,
												"parentstyle" : "",
												"multi" : 0
											}
 ],
										"bgcolor" : [ 1.0, 1.0, 1.0, 1.0 ]
									}
,
									"patching_rect" : [ 47.042178750038147, 290.0, 49.0, 22.0 ],
									"text" : "gen HP"
								}

							}
, 							{
								"box" : 								{
									"color" : [ 0.999996, 0.999939, 0.041033, 1.0 ],
									"id" : "obj-240",
									"maxclass" : "newobj",
									"numinlets" : 0,
									"numoutlets" : 1,
									"outlettype" : [ "" ],
									"patching_rect" : [ 47.042178750038147, 106.213199496269226, 190.0, 22.0 ],
									"text" : "in 1 @default 0. @min -1 @max 1"
								}

							}
 ],
						"lines" : [ 							{
								"patchline" : 								{
									"destination" : [ "obj-97", 0 ],
									"source" : [ "obj-1", 0 ]
								}

							}
, 							{
								"patchline" : 								{
									"destination" : [ "obj-1", 0 ],
									"source" : [ "obj-240", 0 ]
								}

							}
, 							{
								"patchline" : 								{
									"destination" : [ "obj-1", 1 ],
									"source" : [ "obj-5", 0 ]
								}

							}
, 							{
								"patchline" : 								{
									"destination" : [ "obj-21", 0 ],
									"midpoints" : [ 56.542178750038147, 385.356466114521027, 134.568857192993164, 385.356466114521027 ],
									"order" : 0,
									"source" : [ "obj-97", 0 ]
								}

							}
, 							{
								"patchline" : 								{
									"destination" : [ "obj-22", 0 ],
									"order" : 1,
									"source" : [ "obj-97", 0 ]
								}

							}
 ],
						"styles" : [ 							{
								"name" : "AudioStatus_Menu",
								"default" : 								{
									"bgfillcolor" : 									{
										"angle" : 270.0,
										"autogradient" : 0,
										"color" : [ 0.294118, 0.313726, 0.337255, 1 ],
										"color1" : [ 0.454902, 0.462745, 0.482353, 0.0 ],
										"color2" : [ 0.290196, 0.309804, 0.301961, 1.0 ],
										"proportion" : 0.39,
										"type" : "color"
									}

								}
,
								"parentstyle" : "",
								"multi" : 0
							}
, 							{
								"name" : "jx.test1",
								"default" : 								{
									"bgfillcolor" : 									{
										"angle" : 270.0,
										"color" : [ 0.290196, 0.309804, 0.301961, 1.0 ],
										"color1" : [ 0.376471, 0.384314, 0.4, 1.0 ],
										"color2" : [ 0.290196, 0.309804, 0.301961, 1.0 ],
										"proportion" : 0.39,
										"type" : "gradient"
									}
,
									"fontface" : [ 1 ],
									"fontname" : [ "Verdana" ],
									"fontsize" : [ 9.0 ],
									"textcolor" : [ 0.32549, 0.345098, 0.372549, 1.0 ]
								}
,
								"parentstyle" : "",
								"multi" : 0
							}
 ]
					}
,
					"patching_rect" : [ 50.0, 198.799405157566071, 49.0, 22.0 ],
					"style" : "chiba",
					"text" : "gen HP"
				}

			}
, 			{
				"box" : 				{
					"id" : "obj-1",
					"maxclass" : "newobj",
					"numinlets" : 0,
					"numoutlets" : 1,
					"outlettype" : [ "" ],
					"patching_rect" : [ 50.0, 14.0, 28.0, 22.0 ],
					"text" : "in 1"
				}

			}
, 			{
				"box" : 				{
					"id" : "obj-4",
					"maxclass" : "newobj",
					"numinlets" : 1,
					"numoutlets" : 0,
					"patching_rect" : [ 50.0, 402.0, 35.0, 22.0 ],
					"text" : "out 1"
				}

			}
 ],
		"lines" : [ 			{
				"patchline" : 				{
					"destination" : [ "obj-220", 0 ],
					"midpoints" : [ 59.5, 39.0, 59.5, 39.0 ],
					"order" : 1,
					"source" : [ "obj-1", 0 ]
				}

			}
, 			{
				"patchline" : 				{
					"destination" : [ "obj-9", 0 ],
					"midpoints" : [ 59.5, 117.0, 36.0, 117.0, 36.0, 312.0, 59.5, 312.0 ],
					"order" : 0,
					"source" : [ "obj-1", 0 ]
				}

			}
, 			{
				"patchline" : 				{
					"destination" : [ "obj-68", 1 ],
					"midpoints" : [ 555.5, 282.0, 70.0, 282.0 ],
					"source" : [ "obj-11", 0 ]
				}

			}
, 			{
				"patchline" : 				{
					"destination" : [ "obj-2", 0 ],
					"midpoints" : [ 59.5, 366.0, 59.5, 366.0 ],
					"source" : [ "obj-12", 0 ]
				}

			}
, 			{
				"patchline" : 				{
					"destination" : [ "obj-21", 1 ],
					"midpoints" : [ 729.5, 186.0, 730.0, 186.0 ],
					"order" : 1,
					"source" : [ "obj-13", 0 ]
				}

			}
, 			{
				"patchline" : 				{
					"destination" : [ "obj-23", 0 ],
					"midpoints" : [ 729.5, 210.0, 774.5, 210.0 ],
					"order" : 0,
					"source" : [ "obj-13", 0 ]
				}

			}
, 			{
				"patchline" : 				{
					"destination" : [ "obj-19", 1 ],
					"midpoints" : [ 438.5, 183.0, 89.5, 183.0 ],
					"source" : [ "obj-14", 0 ]
				}

			}
, 			{
				"patchline" : 				{
					"destination" : [ "obj-69", 0 ],
					"midpoints" : [ 59.5, 222.0, 59.5, 222.0 ],
					"source" : [ "obj-19", 0 ]
				}

			}
, 			{
				"patchline" : 				{
					"destination" : [ "obj-4", 0 ],
					"midpoints" : [ 59.5, 393.0, 59.5, 393.0 ],
					"source" : [ "obj-2", 0 ]
				}

			}
, 			{
				"patchline" : 				{
					"destination" : [ "obj-22", 0 ],
					"midpoints" : [ 719.5, 249.0, 719.5, 249.0 ],
					"source" : [ "obj-21", 0 ]
				}

			}
, 			{
				"patchline" : 				{
					"destination" : [ "obj-9", 2 ],
					"midpoints" : [ 719.5, 312.0, 80.5, 312.0 ],
					"source" : [ "obj-22", 0 ]
				}

			}
, 			{
				"patchline" : 				{
					"destination" : [ "obj-19", 0 ],
					"midpoints" : [ 59.5, 156.0, 59.5, 156.0 ],
					"source" : [ "obj-220", 0 ]
				}

			}
, 			{
				"patchline" : 				{
					"destination" : [ "obj-22", 1 ],
					"midpoints" : [ 774.5, 261.0, 730.0, 261.0 ],
					"source" : [ "obj-23", 0 ]
				}

			}
, 			{
				"patchline" : 				{
					"destination" : [ "obj-13", 0 ],
					"midpoints" : [ 730.5, 39.0, 729.5, 39.0 ],
					"source" : [ "obj-24", 0 ]
				}

			}
, 			{
				"patchline" : 				{
					"destination" : [ "obj-220", 1 ],
					"midpoints" : [ 59.5, 312.0, 36.0, 312.0, 36.0, 117.0, 87.5, 117.0 ],
					"order" : 0,
					"source" : [ "obj-68", 0 ]
				}

			}
, 			{
				"patchline" : 				{
					"destination" : [ "obj-9", 1 ],
					"midpoints" : [ 59.5, 312.0, 70.0, 312.0 ],
					"order" : 1,
					"source" : [ "obj-68", 0 ]
				}

			}
, 			{
				"patchline" : 				{
					"destination" : [ "obj-68", 0 ],
					"midpoints" : [ 59.5, 273.0, 59.5, 273.0 ],
					"source" : [ "obj-69", 0 ]
				}

			}
, 			{
				"patchline" : 				{
					"destination" : [ "obj-21", 0 ],
					"midpoints" : [ 215.5, 129.0, 705.0, 129.0, 705.0, 210.0, 719.5, 210.0 ],
					"order" : 0,
					"source" : [ "obj-8", 0 ]
				}

			}
, 			{
				"patchline" : 				{
					"destination" : [ "obj-3", 0 ],
					"midpoints" : [ 215.5, 129.0, 126.5, 129.0 ],
					"order" : 1,
					"source" : [ "obj-8", 0 ]
				}

			}
, 			{
				"patchline" : 				{
					"destination" : [ "obj-12", 0 ],
					"midpoints" : [ 59.5, 339.0, 59.5, 339.0 ],
					"source" : [ "obj-9", 0 ]
				}

			}
 ],
		"styles" : [ 			{
				"name" : "AudioStatus_Menu",
				"default" : 				{
					"bgfillcolor" : 					{
						"angle" : 270.0,
						"autogradient" : 0,
						"color" : [ 0.294118, 0.313726, 0.337255, 1 ],
						"color1" : [ 0.454902, 0.462745, 0.482353, 0.0 ],
						"color2" : [ 0.290196, 0.309804, 0.301961, 1.0 ],
						"proportion" : 0.39,
						"type" : "color"
					}

				}
,
				"parentstyle" : "",
				"multi" : 0
			}
, 			{
				"name" : "jx.test1",
				"default" : 				{
					"bgfillcolor" : 					{
						"angle" : 270.0,
						"color" : [ 0.290196, 0.309804, 0.301961, 1.0 ],
						"color1" : [ 0.376471, 0.384314, 0.4, 1.0 ],
						"color2" : [ 0.290196, 0.309804, 0.301961, 1.0 ],
						"proportion" : 0.39,
						"type" : "gradient"
					}
,
					"fontface" : [ 1 ],
					"fontname" : [ "Verdana" ],
					"fontsize" : [ 9.0 ],
					"textcolor" : [ 0.32549, 0.345098, 0.372549, 1.0 ]
				}
,
				"parentstyle" : "",
				"multi" : 0
			}
 ]
	}

}
