{
	"patcher" : 	{
		"fileversion" : 1,
		"appversion" : 		{
			"major" : 8,
			"minor" : 1,
			"revision" : 6,
			"architecture" : "x64",
			"modernui" : 1
		}
,
		"classnamespace" : "box",
		"rect" : [ 59.0, 104.0, 835.0, 626.0 ],
		"bglocked" : 1,
		"openinpresentation" : 0,
		"default_fontsize" : 12.0,
		"default_fontface" : 0,
		"default_fontname" : "Arial",
		"gridonopen" : 1,
		"gridsize" : [ 15.0, 15.0 ],
		"gridsnaponopen" : 1,
		"objectsnaponopen" : 1,
		"statusbarvisible" : 2,
		"toolbarvisible" : 1,
		"lefttoolbarpinned" : 0,
		"toptoolbarpinned" : 0,
		"righttoolbarpinned" : 0,
		"bottomtoolbarpinned" : 0,
		"toolbars_unpinned_last_save" : 0,
		"tallnewobj" : 0,
		"boxanimatetime" : 200,
		"enablehscroll" : 1,
		"enablevscroll" : 1,
		"devicewidth" : 0.0,
		"description" : "",
		"digest" : "",
		"tags" : "V.J.",
		"style" : "",
		"subpatcher_template" : "",
		"assistshowspatchername" : 0,
		"title" : "Daisy Petal Layout",
		"boxes" : [ 			{
				"box" : 				{
					"color" : [ 0.317647, 0.654902, 0.976471, 1.0 ],
					"id" : "obj-99",
					"linecount" : 2,
					"maxclass" : "newobj",
					"numinlets" : 0,
					"numoutlets" : 0,
					"patching_rect" : [ 532.0, 365.0, 116.0, 35.0 ],
					"text" : "param @name sw7 @min 0 @max 1"
				}

			}
, 			{
				"box" : 				{
					"color" : [ 0.317647, 0.654902, 0.976471, 1.0 ],
					"id" : "obj-217",
					"maxclass" : "newobj",
					"numinlets" : 0,
					"numoutlets" : 0,
					"patching_rect" : [ 562.0, 8.0, 204.0, 22.0 ],
					"text" : "param @name exp @min 0 @max 1"
				}

			}
, 			{
				"box" : 				{
					"color" : [ 0.317647, 0.654902, 0.976471, 1.0 ],
					"id" : "obj-219",
					"linecount" : 2,
					"maxclass" : "newobj",
					"numinlets" : 0,
					"numoutlets" : 0,
					"patching_rect" : [ 636.0, 267.0, 127.0, 35.0 ],
					"text" : "param @name knob6 @min 0 @max 1"
				}

			}
, 			{
				"box" : 				{
					"color" : [ 0.317647, 0.654902, 0.976471, 1.0 ],
					"id" : "obj-220",
					"linecount" : 2,
					"maxclass" : "newobj",
					"numinlets" : 0,
					"numoutlets" : 0,
					"patching_rect" : [ 408.0, 267.0, 127.0, 35.0 ],
					"text" : "param @name knob5 @min 0 @max 1"
				}

			}
, 			{
				"box" : 				{
					"color" : [ 0.317647, 0.654902, 0.976471, 1.0 ],
					"id" : "obj-221",
					"linecount" : 2,
					"maxclass" : "newobj",
					"numinlets" : 0,
					"numoutlets" : 0,
					"patching_rect" : [ 198.0, 267.0, 127.0, 35.0 ],
					"text" : "param @name knob4 @min 0 @max 1"
				}

			}
, 			{
				"box" : 				{
					"color" : [ 0.317647, 0.654902, 0.976471, 1.0 ],
					"id" : "obj-222",
					"linecount" : 2,
					"maxclass" : "newobj",
					"numinlets" : 0,
					"numoutlets" : 0,
					"patching_rect" : [ 6.5, 267.0, 127.0, 35.0 ],
					"text" : "param @name knob3 @min 0 @max 1"
				}

			}
, 			{
				"box" : 				{
					"color" : [ 0.317647, 0.654902, 0.976471, 1.0 ],
					"id" : "obj-223",
					"linecount" : 2,
					"maxclass" : "newobj",
					"numinlets" : 0,
					"numoutlets" : 0,
					"patching_rect" : [ 501.5, 112.0, 127.0, 35.0 ],
					"text" : "param @name knob2 @min 0 @max 1"
				}

			}
, 			{
				"box" : 				{
					"color" : [ 0.317647, 0.654902, 0.976471, 1.0 ],
					"id" : "obj-224",
					"linecount" : 2,
					"maxclass" : "newobj",
					"numinlets" : 0,
					"numoutlets" : 0,
					"patching_rect" : [ 291.5, 112.0, 127.0, 35.0 ],
					"text" : "param @name knob1 @min 0 @max 1"
				}

			}
, 			{
				"box" : 				{
					"color" : [ 0.317647, 0.654902, 0.976471, 1.0 ],
					"id" : "obj-244",
					"linecount" : 2,
					"maxclass" : "newobj",
					"numinlets" : 0,
					"numoutlets" : 0,
					"patching_rect" : [ 318.0, 365.0, 116.0, 35.0 ],
					"text" : "param @name sw6 @min 0 @max 1"
				}

			}
, 			{
				"box" : 				{
					"color" : [ 0.317647, 0.654902, 0.976471, 1.0 ],
					"id" : "obj-245",
					"linecount" : 2,
					"maxclass" : "newobj",
					"numinlets" : 0,
					"numoutlets" : 0,
					"patching_rect" : [ 108.0, 365.0, 116.0, 35.0 ],
					"text" : "param @name sw5 @min 0 @max 1"
				}

			}
, 			{
				"box" : 				{
					"color" : [ 0.317647, 0.654902, 0.976471, 1.0 ],
					"id" : "obj-246",
					"linecount" : 2,
					"maxclass" : "newobj",
					"numinlets" : 0,
					"numoutlets" : 0,
					"patching_rect" : [ 639.5, 509.0, 117.0, 35.0 ],
					"text" : "param @name sw4 @min 0 @max 1"
				}

			}
, 			{
				"box" : 				{
					"color" : [ 0.317647, 0.654902, 0.976471, 1.0 ],
					"id" : "obj-247",
					"linecount" : 2,
					"maxclass" : "newobj",
					"numinlets" : 0,
					"numoutlets" : 0,
					"patching_rect" : [ 411.5, 509.0, 117.0, 35.0 ],
					"text" : "param @name sw3 @min 0 @max 1"
				}

			}
, 			{
				"box" : 				{
					"color" : [ 0.317647, 0.654902, 0.976471, 1.0 ],
					"id" : "obj-248",
					"linecount" : 2,
					"maxclass" : "newobj",
					"numinlets" : 0,
					"numoutlets" : 0,
					"patching_rect" : [ 201.5, 509.0, 117.0, 35.0 ],
					"text" : "param @name sw2 @min 0 @max 1"
				}

			}
, 			{
				"box" : 				{
					"color" : [ 0.317647, 0.654902, 0.976471, 1.0 ],
					"id" : "obj-249",
					"linecount" : 2,
					"maxclass" : "newobj",
					"numinlets" : 0,
					"numoutlets" : 0,
					"patching_rect" : [ 14.5, 509.0, 117.0, 35.0 ],
					"text" : "param @name sw1 @min 0 @max 1"
				}

			}
, 			{
				"box" : 				{
					"background" : 1,
					"bgcolor" : [ 0.2, 0.2, 0.2, 0.0 ],
					"id" : "obj-54",
					"maxclass" : "button",
					"numinlets" : 1,
					"numoutlets" : 1,
					"outlettype" : [ "bang" ],
					"parameter_enable" : 0,
					"patching_rect" : [ 408.0, 402.0, 118.0, 118.0 ]
				}

			}
, 			{
				"box" : 				{
					"angle" : 270.0,
					"background" : 1,
					"bgcolor" : [ 0.843137254901961, 0.843137254901961, 0.843137254901961, 1.0 ],
					"id" : "obj-55",
					"maxclass" : "panel",
					"mode" : 0,
					"numinlets" : 1,
					"numoutlets" : 0,
					"patching_rect" : [ 431.0, 425.0, 72.0, 72.0 ],
					"proportion" : 0.5,
					"rounded" : 360
				}

			}
, 			{
				"box" : 				{
					"background" : 1,
					"bgcolor" : [ 0.2, 0.2, 0.2, 0.0 ],
					"degrees" : 360,
					"id" : "obj-13",
					"maxclass" : "dial",
					"mode" : 4,
					"needlecolor" : [ 0.0, 0.0, 0.0, 1.0 ],
					"numinlets" : 1,
					"numoutlets" : 1,
					"outlettype" : [ "float" ],
					"outlinecolor" : [ 0.0, 0.0, 0.0, 1.0 ],
					"parameter_enable" : 0,
					"patching_rect" : [ 522.0, 39.0, 75.5, 75.5 ],
					"presentation" : 1,
					"presentation_rect" : [ 479.0, 42.75, 75.5, 75.5 ],
					"varname" : "dial[5]"
				}

			}
, 			{
				"box" : 				{
					"angle" : 270.0,
					"background" : 1,
					"bgcolor" : [ 0.843137254901961, 0.843137254901961, 0.843137254901961, 1.0 ],
					"id" : "obj-14",
					"maxclass" : "panel",
					"mode" : 0,
					"numinlets" : 1,
					"numoutlets" : 0,
					"patching_rect" : [ 532.0, 49.0, 54.212765957446891, 56.0 ],
					"presentation" : 1,
					"presentation_rect" : [ 489.0, 52.75, 54.212765957446891, 56.0 ],
					"proportion" : 0.5,
					"rounded" : 360
				}

			}
, 			{
				"box" : 				{
					"background" : 1,
					"bgcolor" : [ 0.2, 0.2, 0.2, 0.0 ],
					"degrees" : 360,
					"id" : "obj-15",
					"maxclass" : "dial",
					"mode" : 4,
					"needlecolor" : [ 0.0, 0.0, 0.0, 1.0 ],
					"numinlets" : 1,
					"numoutlets" : 1,
					"outlettype" : [ "float" ],
					"outlinecolor" : [ 0.0, 0.0, 0.0, 1.0 ],
					"parameter_enable" : 0,
					"patching_rect" : [ 683.5, 39.0, 75.5, 75.5 ],
					"presentation" : 1,
					"presentation_rect" : [ 639.5, 31.75, 75.5, 75.5 ],
					"varname" : "dial[6]"
				}

			}
, 			{
				"box" : 				{
					"angle" : 270.0,
					"background" : 1,
					"bgcolor" : [ 0.843137254901961, 0.843137254901961, 0.843137254901961, 1.0 ],
					"id" : "obj-16",
					"maxclass" : "panel",
					"mode" : 0,
					"numinlets" : 1,
					"numoutlets" : 0,
					"patching_rect" : [ 693.5, 49.0, 54.212765957446891, 56.0 ],
					"presentation" : 1,
					"presentation_rect" : [ 649.5, 41.75, 54.212765957446891, 56.0 ],
					"proportion" : 0.5,
					"rounded" : 360
				}

			}
, 			{
				"box" : 				{
					"background" : 1,
					"hidden" : 1,
					"id" : "obj-3",
					"maxclass" : "newobj",
					"numinlets" : 1,
					"numoutlets" : 1,
					"outlettype" : [ "" ],
					"patching_rect" : [ 422.0, 42.5, 77.0, 22.0 ],
					"text" : "loadmess 64"
				}

			}
, 			{
				"box" : 				{
					"background" : 1,
					"bgcolor" : [ 0.2, 0.2, 0.2, 0.0 ],
					"degrees" : 360,
					"id" : "obj-2",
					"maxclass" : "dial",
					"mode" : 4,
					"needlecolor" : [ 0.0, 0.0, 0.0, 1.0 ],
					"numinlets" : 1,
					"numoutlets" : 1,
					"outlettype" : [ "float" ],
					"outlinecolor" : [ 0.0, 0.0, 0.0, 1.0 ],
					"parameter_enable" : 0,
					"patching_rect" : [ 650.0, 176.0, 98.0, 98.0 ],
					"presentation" : 1,
					"presentation_rect" : [ 293.0, 189.0, 98.0, 98.0 ],
					"varname" : "dial"
				}

			}
, 			{
				"box" : 				{
					"angle" : 270.0,
					"background" : 1,
					"bgcolor" : [ 0.843137254901961, 0.843137254901961, 0.843137254901961, 1.0 ],
					"id" : "obj-4",
					"maxclass" : "panel",
					"mode" : 0,
					"numinlets" : 1,
					"numoutlets" : 0,
					"patching_rect" : [ 663.0, 189.0, 72.0, 72.0 ],
					"presentation" : 1,
					"presentation_rect" : [ 306.0, 202.0, 72.0, 72.0 ],
					"proportion" : 0.5,
					"rounded" : 360
				}

			}
, 			{
				"box" : 				{
					"background" : 1,
					"bgcolor" : [ 0.2, 0.2, 0.2, 0.0 ],
					"degrees" : 360,
					"id" : "obj-9",
					"maxclass" : "dial",
					"mode" : 4,
					"needlecolor" : [ 0.0, 0.0, 0.0, 1.0 ],
					"numinlets" : 1,
					"numoutlets" : 1,
					"outlettype" : [ "float" ],
					"outlinecolor" : [ 0.0, 0.0, 0.0, 1.0 ],
					"parameter_enable" : 0,
					"patching_rect" : [ 422.0, 176.0, 98.0, 98.0 ],
					"presentation" : 1,
					"presentation_rect" : [ 436.0, 329.0, 98.0, 98.0 ],
					"varname" : "dial[3]"
				}

			}
, 			{
				"box" : 				{
					"angle" : 270.0,
					"background" : 1,
					"bgcolor" : [ 0.843137254901961, 0.843137254901961, 0.843137254901961, 1.0 ],
					"id" : "obj-10",
					"maxclass" : "panel",
					"mode" : 0,
					"numinlets" : 1,
					"numoutlets" : 0,
					"patching_rect" : [ 435.0, 189.0, 72.0, 72.0 ],
					"presentation" : 1,
					"presentation_rect" : [ 449.0, 342.0, 72.0, 72.0 ],
					"proportion" : 0.5,
					"rounded" : 360
				}

			}
, 			{
				"box" : 				{
					"background" : 1,
					"bgcolor" : [ 0.2, 0.2, 0.2, 0.0 ],
					"degrees" : 360,
					"id" : "obj-11",
					"maxclass" : "dial",
					"mode" : 4,
					"needlecolor" : [ 0.0, 0.0, 0.0, 1.0 ],
					"numinlets" : 1,
					"numoutlets" : 1,
					"outlettype" : [ "float" ],
					"outlinecolor" : [ 0.0, 0.0, 0.0, 1.0 ],
					"parameter_enable" : 0,
					"patching_rect" : [ 312.5, 32.5, 75.5, 75.5 ],
					"presentation" : 1,
					"presentation_rect" : [ 1002.0, 135.0, 75.5, 75.5 ],
					"varname" : "dial[4]"
				}

			}
, 			{
				"box" : 				{
					"angle" : 270.0,
					"background" : 1,
					"bgcolor" : [ 0.843137254901961, 0.843137254901961, 0.843137254901961, 1.0 ],
					"id" : "obj-12",
					"maxclass" : "panel",
					"mode" : 0,
					"numinlets" : 1,
					"numoutlets" : 0,
					"patching_rect" : [ 322.5, 42.5, 54.212765957446891, 56.0 ],
					"presentation" : 1,
					"presentation_rect" : [ 1012.0, 145.0, 54.212765957446891, 56.0 ],
					"proportion" : 0.5,
					"rounded" : 360
				}

			}
, 			{
				"box" : 				{
					"background" : 1,
					"bgcolor" : [ 0.2, 0.2, 0.2, 0.0 ],
					"degrees" : 360,
					"id" : "obj-7",
					"maxclass" : "dial",
					"mode" : 4,
					"needlecolor" : [ 0.0, 0.0, 0.0, 1.0 ],
					"numinlets" : 1,
					"numoutlets" : 1,
					"outlettype" : [ "float" ],
					"outlinecolor" : [ 0.0, 0.0, 0.0, 1.0 ],
					"parameter_enable" : 0,
					"patching_rect" : [ 212.0, 176.0, 98.0, 98.0 ],
					"presentation" : 1,
					"presentation_rect" : [ 202.0, 322.0, 98.0, 98.0 ],
					"varname" : "dial[2]"
				}

			}
, 			{
				"box" : 				{
					"angle" : 270.0,
					"background" : 1,
					"bgcolor" : [ 0.843137254901961, 0.843137254901961, 0.843137254901961, 1.0 ],
					"id" : "obj-8",
					"maxclass" : "panel",
					"mode" : 0,
					"numinlets" : 1,
					"numoutlets" : 0,
					"patching_rect" : [ 225.0, 189.0, 72.0, 72.0 ],
					"presentation" : 1,
					"presentation_rect" : [ 215.0, 335.0, 72.0, 72.0 ],
					"proportion" : 0.5,
					"rounded" : 360
				}

			}
, 			{
				"box" : 				{
					"angle" : 270.0,
					"background" : 1,
					"bgcolor" : [ 0.0, 0.0, 0.0, 1.0 ],
					"border" : 1,
					"bordercolor" : [ 0.392156862745098, 0.392156862745098, 0.011764705882353, 1.0 ],
					"id" : "obj-38",
					"maxclass" : "panel",
					"mode" : 0,
					"numinlets" : 1,
					"numoutlets" : 0,
					"patching_rect" : [ 177.0, 54.625, 23.0, 54.25 ],
					"proportion" : 0.5,
					"rounded" : 4
				}

			}
, 			{
				"box" : 				{
					"angle" : 270.0,
					"background" : 1,
					"bgcolor" : [ 0.0, 0.0, 0.0, 1.0 ],
					"border" : 1,
					"bordercolor" : [ 0.392156862745098, 0.392156862745098, 0.011764705882353, 1.0 ],
					"id" : "obj-39",
					"maxclass" : "panel",
					"mode" : 0,
					"numinlets" : 1,
					"numoutlets" : 0,
					"patching_rect" : [ 212.0, 67.75, 25.0, 28.0 ],
					"proportion" : 0.5,
					"rounded" : 4
				}

			}
, 			{
				"box" : 				{
					"activecolor" : [ 0.843137254901961, 0.843137254901961, 0.843137254901961, 1.0 ],
					"background" : 1,
					"disabled" : [ 0, 0 ],
					"id" : "obj-33",
					"itemtype" : 0,
					"maxclass" : "radiogroup",
					"numinlets" : 1,
					"numoutlets" : 1,
					"offset" : 14,
					"outlettype" : [ "" ],
					"parameter_enable" : 0,
					"patching_rect" : [ 365.0, 325.0, 19.0, 30.0 ],
					"shape" : 2,
					"size" : 2,
					"value" : 1
				}

			}
, 			{
				"box" : 				{
					"activecolor" : [ 0.843137254901961, 0.843137254901961, 0.843137254901961, 1.0 ],
					"background" : 1,
					"disabled" : [ 0, 0 ],
					"id" : "obj-34",
					"itemtype" : 0,
					"maxclass" : "radiogroup",
					"numinlets" : 1,
					"numoutlets" : 1,
					"offset" : 14,
					"outlettype" : [ "" ],
					"parameter_enable" : 0,
					"patching_rect" : [ 579.0, 325.0, 19.0, 30.0 ],
					"shape" : 2,
					"size" : 2,
					"value" : 1
				}

			}
, 			{
				"box" : 				{
					"activecolor" : [ 0.843137254901961, 0.843137254901961, 0.843137254901961, 1.0 ],
					"background" : 1,
					"disabled" : [ 0, 0 ],
					"id" : "obj-29",
					"itemtype" : 0,
					"maxclass" : "radiogroup",
					"numinlets" : 1,
					"numoutlets" : 1,
					"offset" : 14,
					"outlettype" : [ "" ],
					"parameter_enable" : 0,
					"patching_rect" : [ 151.0, 325.0, 19.0, 30.0 ],
					"shape" : 2,
					"size" : 2,
					"value" : 0
				}

			}
, 			{
				"box" : 				{
					"angle" : 270.0,
					"background" : 1,
					"bgcolor" : [ 0.0, 0.0, 0.0, 1.0 ],
					"border" : 1,
					"bordercolor" : [ 0.392156862745098, 0.392156862745098, 0.011764705882353, 1.0 ],
					"id" : "obj-37",
					"maxclass" : "panel",
					"mode" : 0,
					"numinlets" : 1,
					"numoutlets" : 0,
					"patching_rect" : [ 121.0, 62.75, 34.0, 38.0 ],
					"proportion" : 0.5,
					"rounded" : 4
				}

			}
, 			{
				"box" : 				{
					"background" : 1,
					"bgcolor" : [ 0.2, 0.2, 0.2, 0.0 ],
					"degrees" : 360,
					"id" : "obj-5",
					"maxclass" : "dial",
					"mode" : 4,
					"needlecolor" : [ 0.0, 0.0, 0.0, 1.0 ],
					"numinlets" : 1,
					"numoutlets" : 1,
					"outlettype" : [ "float" ],
					"outlinecolor" : [ 0.0, 0.0, 0.0, 1.0 ],
					"parameter_enable" : 0,
					"patching_rect" : [ 17.0, 176.0, 98.0, 98.0 ],
					"presentation" : 1,
					"presentation_rect" : [ 72.0, 191.0, 98.0, 98.0 ],
					"varname" : "dial[1]"
				}

			}
, 			{
				"box" : 				{
					"angle" : 270.0,
					"background" : 1,
					"bgcolor" : [ 0.843137254901961, 0.843137254901961, 0.843137254901961, 1.0 ],
					"id" : "obj-6",
					"maxclass" : "panel",
					"mode" : 0,
					"numinlets" : 1,
					"numoutlets" : 0,
					"patching_rect" : [ 30.0, 189.0, 72.0, 72.0 ],
					"presentation" : 1,
					"presentation_rect" : [ 85.0, 204.0, 72.0, 72.0 ],
					"proportion" : 0.5,
					"rounded" : 360
				}

			}
, 			{
				"box" : 				{
					"background" : 1,
					"bgcolor" : [ 0.2, 0.2, 0.2, 0.0 ],
					"id" : "obj-17",
					"maxclass" : "button",
					"numinlets" : 1,
					"numoutlets" : 1,
					"outlettype" : [ "bang" ],
					"parameter_enable" : 0,
					"patching_rect" : [ 10.5, 402.0, 118.0, 118.0 ]
				}

			}
, 			{
				"box" : 				{
					"angle" : 270.0,
					"background" : 1,
					"bgcolor" : [ 0.843137254901961, 0.843137254901961, 0.843137254901961, 1.0 ],
					"id" : "obj-19",
					"maxclass" : "panel",
					"mode" : 0,
					"numinlets" : 1,
					"numoutlets" : 0,
					"patching_rect" : [ 33.5, 425.0, 72.0, 72.0 ],
					"proportion" : 0.5,
					"rounded" : 360
				}

			}
, 			{
				"box" : 				{
					"background" : 1,
					"bgcolor" : [ 0.2, 0.2, 0.2, 0.0 ],
					"id" : "obj-21",
					"maxclass" : "button",
					"numinlets" : 1,
					"numoutlets" : 1,
					"outlettype" : [ "bang" ],
					"parameter_enable" : 0,
					"patching_rect" : [ 201.5, 402.0, 118.0, 118.0 ]
				}

			}
, 			{
				"box" : 				{
					"angle" : 270.0,
					"background" : 1,
					"bgcolor" : [ 0.843137254901961, 0.843137254901961, 0.843137254901961, 1.0 ],
					"id" : "obj-20",
					"maxclass" : "panel",
					"mode" : 0,
					"numinlets" : 1,
					"numoutlets" : 0,
					"patching_rect" : [ 224.5, 425.0, 72.0, 72.0 ],
					"proportion" : 0.5,
					"rounded" : 360
				}

			}
, 			{
				"box" : 				{
					"background" : 1,
					"bgcolor" : [ 0.2, 0.2, 0.2, 0.0 ],
					"id" : "obj-25",
					"maxclass" : "button",
					"numinlets" : 1,
					"numoutlets" : 1,
					"outlettype" : [ "bang" ],
					"parameter_enable" : 0,
					"patching_rect" : [ 639.5, 402.0, 118.0, 118.0 ]
				}

			}
, 			{
				"box" : 				{
					"angle" : 270.0,
					"background" : 1,
					"bgcolor" : [ 0.843137254901961, 0.843137254901961, 0.843137254901961, 1.0 ],
					"id" : "obj-24",
					"maxclass" : "panel",
					"mode" : 0,
					"numinlets" : 1,
					"numoutlets" : 0,
					"patching_rect" : [ 662.5, 425.0, 72.0, 72.0 ],
					"proportion" : 0.5,
					"rounded" : 360
				}

			}
, 			{
				"box" : 				{
					"background" : 1,
					"border" : 3.0,
					"id" : "obj-35",
					"linecolor" : [ 0.843137254901961, 0.843137254901961, 0.843137254901961, 1.0 ],
					"maxclass" : "live.line",
					"numinlets" : 1,
					"numoutlets" : 0,
					"patching_rect" : [ 25.0, 412.0, 754.0, 17.0 ]
				}

			}
, 			{
				"box" : 				{
					"angle" : 270.0,
					"background" : 1,
					"bgcolor" : [ 0.0, 0.0, 0.0, 1.0 ],
					"border" : 2,
					"bordercolor" : [ 0.392156862745098, 0.392156862745098, 0.011764705882353, 1.0 ],
					"id" : "obj-40",
					"maxclass" : "panel",
					"mode" : 0,
					"numinlets" : 1,
					"numoutlets" : 0,
					"patching_rect" : [ 53.5, 70.75, 32.0, 21.5 ],
					"proportion" : 0.5,
					"rounded" : 4
				}

			}
, 			{
				"box" : 				{
					"angle" : 270.0,
					"background" : 1,
					"bgcolor" : [ 0.843137254901961, 0.843137254901961, 0.843137254901961, 1.0 ],
					"border" : 1,
					"bordercolor" : [ 0.392156862745098, 0.392156862745098, 0.011764705882353, 1.0 ],
					"id" : "obj-46",
					"maxclass" : "panel",
					"mode" : 0,
					"numinlets" : 1,
					"numoutlets" : 0,
					"patching_rect" : [ 60.356382978723445, 54.5, 18.287234042553109, 12.5 ],
					"proportion" : 0.5,
					"rounded" : 9
				}

			}
, 			{
				"box" : 				{
					"angle" : 270.0,
					"background" : 1,
					"bgcolor" : [ 0.843137254901961, 0.843137254901961, 0.843137254901961, 1.0 ],
					"border" : 1,
					"bordercolor" : [ 0.392156862745098, 0.392156862745098, 0.011764705882353, 1.0 ],
					"id" : "obj-47",
					"maxclass" : "panel",
					"mode" : 0,
					"numinlets" : 1,
					"numoutlets" : 0,
					"patching_rect" : [ 60.356382978723445, 96.375, 18.287234042553109, 12.5 ],
					"proportion" : 0.5,
					"rounded" : 9
				}

			}
, 			{
				"box" : 				{
					"angle" : 270.0,
					"background" : 1,
					"bgcolor" : [ 0.843137254901961, 0.843137254901961, 0.843137254901961, 1.0 ],
					"border" : 1,
					"bordercolor" : [ 0.392156862745098, 0.392156862745098, 0.011764705882353, 1.0 ],
					"id" : "obj-48",
					"maxclass" : "panel",
					"mode" : 0,
					"numinlets" : 1,
					"numoutlets" : 0,
					"patching_rect" : [ 17.0, 62.75, 17.787234042553109, 33.0 ],
					"proportion" : 0.5,
					"rounded" : 9
				}

			}
, 			{
				"box" : 				{
					"angle" : 270.0,
					"background" : 1,
					"bgcolor" : [ 0.83921568627451, 0.647058823529412, 0.156862745098039, 1.0 ],
					"border" : 2,
					"bordercolor" : [ 0.352941176470588, 0.352941176470588, 0.098039215686275, 1.0 ],
					"id" : "obj-36",
					"maxclass" : "panel",
					"mode" : 0,
					"numinlets" : 1,
					"numoutlets" : 0,
					"patching_rect" : [ 25.0, 49.0, 226.0, 65.5 ],
					"proportion" : 0.5
				}

			}
, 			{
				"box" : 				{
					"angle" : 270.0,
					"background" : 1,
					"bgcolor" : [ 0.537254901960784, 0.537254901960784, 0.537254901960784, 1.0 ],
					"id" : "obj-1",
					"maxclass" : "panel",
					"mode" : 0,
					"numinlets" : 1,
					"numoutlets" : 0,
					"patching_rect" : [ 1.5, 28.5, 815.0, 527.5 ],
					"proportion" : 0.5,
					"rounded" : 56
				}

			}
, 			{
				"box" : 				{
					"angle" : 270.0,
					"background" : 1,
					"bgcolor" : [ 0.105882352941176, 0.105882352941176, 0.105882352941176, 1.0 ],
					"id" : "obj-53",
					"maxclass" : "panel",
					"mode" : 0,
					"numinlets" : 1,
					"numoutlets" : 0,
					"patching_rect" : [ 494.0, 8.0, 66.0, 34.0 ],
					"proportion" : 0.5,
					"rounded" : 27
				}

			}
, 			{
				"box" : 				{
					"angle" : 270.0,
					"background" : 1,
					"bgcolor" : [ 0.105882352941176, 0.105882352941176, 0.105882352941176, 1.0 ],
					"id" : "obj-51",
					"maxclass" : "panel",
					"mode" : 0,
					"numinlets" : 1,
					"numoutlets" : 0,
					"patching_rect" : [ 225.0, 8.0, 66.0, 34.0 ],
					"proportion" : 0.5,
					"rounded" : 27
				}

			}
, 			{
				"box" : 				{
					"angle" : 270.0,
					"background" : 1,
					"bgcolor" : [ 0.105882352941176, 0.105882352941176, 0.105882352941176, 1.0 ],
					"id" : "obj-52",
					"maxclass" : "panel",
					"mode" : 0,
					"numinlets" : 1,
					"numoutlets" : 0,
					"patching_rect" : [ 299.0, 8.0, 66.0, 34.0 ],
					"proportion" : 0.5,
					"rounded" : 27
				}

			}
, 			{
				"box" : 				{
					"angle" : 270.0,
					"background" : 1,
					"bgcolor" : [ 0.105882352941176, 0.105882352941176, 0.105882352941176, 1.0 ],
					"id" : "obj-50",
					"maxclass" : "panel",
					"mode" : 0,
					"numinlets" : 1,
					"numoutlets" : 0,
					"patching_rect" : [ 127.5, 8.0, 66.0, 34.0 ],
					"proportion" : 0.5,
					"rounded" : 27
				}

			}
, 			{
				"box" : 				{
					"angle" : 270.0,
					"background" : 1,
					"bgcolor" : [ 0.105882352941176, 0.105882352941176, 0.105882352941176, 1.0 ],
					"id" : "obj-49",
					"maxclass" : "panel",
					"mode" : 0,
					"numinlets" : 1,
					"numoutlets" : 0,
					"patching_rect" : [ 39.5, 8.0, 66.0, 34.0 ],
					"proportion" : 0.5,
					"rounded" : 27
				}

			}
, 			{
				"box" : 				{
					"background" : 1,
					"id" : "obj-57",
					"maxclass" : "comment",
					"numinlets" : 1,
					"numoutlets" : 0,
					"patching_rect" : [ 6.5, 589.0, 755.0, 20.0 ],
					"text" : "unlocking the patch and \"selecting all\" will highlight only the param objects, which can be copied and pasted into a gen~ patch"
				}

			}
, 			{
				"box" : 				{
					"background" : 1,
					"fontname" : "Arial Bold",
					"fontsize" : 24.0,
					"id" : "obj-58",
					"maxclass" : "comment",
					"numinlets" : 1,
					"numoutlets" : 0,
					"patching_rect" : [ 6.5, 558.0, 434.5, 33.0 ],
					"text" : "Electrosmith Daisy Petal Layout"
				}

			}
 ],
		"lines" : [ 			{
				"patchline" : 				{
					"color" : [ 0.463041543960571, 0.463130414485931, 0.463026702404022, 1.0 ],
					"destination" : [ "obj-11", 0 ],
					"hidden" : 1,
					"midpoints" : [ 431.5, 74.5, 376.75, 74.5, 376.75, 21.5, 322.0, 21.5 ],
					"order" : 4,
					"source" : [ "obj-3", 0 ]
				}

			}
, 			{
				"patchline" : 				{
					"color" : [ 0.463041543960571, 0.463130414485931, 0.463026702404022, 1.0 ],
					"destination" : [ "obj-13", 0 ],
					"hidden" : 1,
					"midpoints" : [ 431.5, 74.5, 506.5, 74.5, 506.5, 28.0, 531.5, 28.0 ],
					"order" : 2,
					"source" : [ "obj-3", 0 ]
				}

			}
, 			{
				"patchline" : 				{
					"color" : [ 0.463041543960571, 0.463130414485931, 0.463026702404022, 1.0 ],
					"destination" : [ "obj-15", 0 ],
					"hidden" : 1,
					"midpoints" : [ 431.5, 74.5, 562.25, 74.5, 562.25, 28.0, 693.0, 28.0 ],
					"order" : 0,
					"source" : [ "obj-3", 0 ]
				}

			}
, 			{
				"patchline" : 				{
					"color" : [ 0.463041543960571, 0.463130414485931, 0.463026702404022, 1.0 ],
					"destination" : [ "obj-2", 0 ],
					"hidden" : 1,
					"midpoints" : [ 431.5, 119.75, 659.5, 119.75 ],
					"order" : 1,
					"source" : [ "obj-3", 0 ]
				}

			}
, 			{
				"patchline" : 				{
					"color" : [ 0.463041543960571, 0.463130414485931, 0.463026702404022, 1.0 ],
					"destination" : [ "obj-5", 0 ],
					"hidden" : 1,
					"midpoints" : [ 431.5, 119.75, 26.5, 119.75 ],
					"order" : 6,
					"source" : [ "obj-3", 0 ]
				}

			}
, 			{
				"patchline" : 				{
					"color" : [ 0.463041543960571, 0.463130414485931, 0.463026702404022, 1.0 ],
					"destination" : [ "obj-7", 0 ],
					"hidden" : 1,
					"midpoints" : [ 431.5, 119.75, 221.5, 119.75 ],
					"order" : 5,
					"source" : [ "obj-3", 0 ]
				}

			}
, 			{
				"patchline" : 				{
					"color" : [ 0.463041543960571, 0.463130414485931, 0.463026702404022, 1.0 ],
					"destination" : [ "obj-9", 0 ],
					"hidden" : 1,
					"midpoints" : [ 431.5, 119.75, 431.5, 119.75 ],
					"order" : 3,
					"source" : [ "obj-3", 0 ]
				}

			}
 ],
		"dependency_cache" : [  ],
		"autosave" : 0,
		"boxgroups" : [ 			{
				"boxes" : [ "obj-2", "obj-4" ]
			}
, 			{
				"boxes" : [ "obj-5", "obj-6" ]
			}
, 			{
				"boxes" : [ "obj-7", "obj-8" ]
			}
, 			{
				"boxes" : [ "obj-9", "obj-10" ]
			}
, 			{
				"boxes" : [ "obj-11", "obj-12" ]
			}
, 			{
				"boxes" : [ "obj-13", "obj-14" ]
			}
, 			{
				"boxes" : [ "obj-15", "obj-16" ]
			}
, 			{
				"boxes" : [ "obj-25", "obj-24" ]
			}
, 			{
				"boxes" : [ "obj-21", "obj-20" ]
			}
, 			{
				"boxes" : [ "obj-17", "obj-19" ]
			}
, 			{
				"boxes" : [ "obj-54", "obj-55" ]
			}
 ]
	}

}
